<svg width="130" height="130" viewBox="0 0 130 130" fill="none" xmlns="http://www.w3.org/2000/svg">
<rect width="130" height="130" rx="65" fill="#FECF2C"/>
<path fill-rule="evenodd" clip-rule="evenodd" d="M65 32L35.5 98C35.5 98 48.5 95.7852 56 89.1409C61.3968 84.3599 65 73.6376 65 73.6376C65 73.6376 68.6032 84.3599 74 89.1409C81.5 95.7852 94.5 98 94.5 98L65 32ZM65 48.6107C65 48.6107 66.3533 53.7326 68 56.7469C69.3401 59.1999 71.75 59.906 71.75 59.906C71.75 59.906 69.3321 61.4043 68 63.3285C65.6636 66.7032 65 73.6376 65 73.6376C65 73.6376 64.3364 66.7032 62 63.3285C60.6679 61.4043 58.25 59.906 58.25 59.906C58.25 59.906 60.6599 59.1999 62 56.7469C63.6467 53.7326 65 48.6107 65 48.6107Z" fill="#4741A6"/>
</svg>
