<svg width="433" height="422" viewBox="0 0 433 422" fill="none" xmlns="http://www.w3.org/2000/svg">
<path fill-rule="evenodd" clip-rule="evenodd" d="M82.7176 165.456C82.3189 160.558 80.4539 152.717 73.8158 153.083C68.277 153.389 63.522 161.751 64.5476 166.636C65.292 170.181 66.4883 168.167 67.5014 166.463C67.6339 166.24 67.7633 166.022 67.8883 165.823C69.1608 163.79 71.4645 161.331 74.1995 161.853C76.5539 162.302 77.5495 164.546 78.4545 166.586C78.7183 167.179 78.9739 167.755 79.2526 168.265C81.3964 172.18 82.1401 168.393 82.6383 165.856C82.6651 165.718 82.692 165.585 82.7176 165.456ZM55.1658 179.816C50.4508 181.465 55.582 186.998 57.8133 188.196C57.3808 189.399 55.4089 190.488 53.9251 191.307L53.9245 191.307C53.5195 191.531 53.1514 191.734 52.8601 191.914C51.1051 193.001 48.8633 193.664 46.8039 194.272L46.5583 194.344L46.3533 194.405C40.5426 196.128 34.8951 196.379 28.8983 195.534C23.1358 194.722 16.537 192.913 12.8195 188.359C11.2114 186.39 9.73326 183.392 11.2758 180.926C11.9958 179.774 13.2639 179.178 14.5545 178.571C15.7551 178.007 16.9751 177.434 17.7895 176.395C18.1701 175.91 18.4483 175.342 18.722 174.781C18.9726 174.269 19.2195 173.763 19.5401 173.333C19.6526 173.182 19.7489 173.049 19.8333 172.933C20.1389 172.511 20.2889 172.305 20.4933 172.218C20.6895 172.135 20.9358 172.163 21.4189 172.217C21.6383 172.241 21.907 172.271 22.2414 172.299C25.5601 172.57 29.0989 172.776 32.3664 172.005C33.7676 171.675 35.1476 171.18 36.5208 170.688C37.5551 170.318 38.5851 169.949 39.6176 169.652C42.1683 168.919 44.587 167.377 46.5595 165.716C51.1095 161.883 55.5639 157.717 59.777 153.54C62.0901 151.246 63.9439 148.589 65.8008 145.928C67.3058 143.771 68.8126 141.611 70.5683 139.64C71.4639 138.634 72.3526 137.571 73.2545 136.494C76.8258 132.226 80.597 127.719 85.7964 125.526C88.7439 124.283 89.327 125.054 90.4351 126.52C90.7333 126.915 91.0708 127.36 91.5026 127.83C93.2245 129.704 95.6126 129.385 97.9395 129.074C98.4358 129.008 98.9289 128.942 99.412 128.897C99.1783 129.411 98.9233 129.931 98.6651 130.459C97.637 132.56 96.5558 134.769 96.5058 137.059C96.4895 137.82 96.6989 138.537 96.9064 139.247C97.1039 139.923 97.2989 140.591 97.2945 141.283C97.2883 142.219 96.762 143.113 96.2458 143.991C95.9858 144.432 95.7283 144.87 95.5408 145.306C93.0201 151.163 92.4108 159.099 92.3164 165.388C92.122 178.398 96.1614 192.257 104.753 202.458C106.565 204.611 108.603 206.6 110.881 208.298C111.305 208.614 112.252 209.079 113.325 209.605H113.326C115.388 210.617 117.917 211.857 118.093 212.71C118.514 214.752 114.717 214.969 112.426 215.1H112.425C111.9 215.13 111.455 215.155 111.156 215.197C109.608 215.415 108.068 215.676 106.529 215.937H106.528H106.528V215.938H106.527C104.724 216.243 102.92 216.55 101.104 216.785C87.6114 218.535 74.292 219.932 60.6895 219.225C60.142 219.197 59.4208 219.275 58.657 219.357C57.3208 219.501 55.8526 219.658 54.9476 219.289C53.6145 218.745 53.7076 217.77 53.8201 216.593C53.8489 216.294 53.8789 215.982 53.887 215.661C53.9633 212.66 53.6539 209.695 53.3439 206.723C53.2333 205.659 53.122 204.595 53.0283 203.529C52.802 200.944 53.2383 200.671 54.6545 199.781C55.0339 199.542 55.4839 199.26 56.0095 198.877C58.5851 197.002 61.1032 193.521 61.9439 190.538C63.4907 191.741 63.3158 192.585 63.0889 193.675C62.9645 194.273 62.8251 194.946 62.9458 195.793C63.362 198.708 65.4058 198.23 66.7539 196.279C68.8451 193.253 68.6601 188.469 66.7058 185.444C64.9551 182.736 58.7089 178.577 55.1658 179.816ZM163.008 287.261C164.292 288.257 165.576 289.253 166.883 290.224C168.2 291.204 169.196 292.175 170.176 293.451C170.246 293.542 170.313 293.629 170.376 293.711C171.409 295.049 171.526 295.2 170.73 296.743C169.856 298.433 168.576 299.778 167.301 301.118C166.37 302.097 165.44 303.074 164.671 304.182C164.001 305.15 163.407 306.154 162.816 307.155L162.816 307.156C161.578 309.251 160.35 311.331 158.443 313.021C157.182 310.281 155.553 314.286 157.646 313.864C157.04 315.599 155.965 317.175 154.89 318.749C154.243 319.697 153.596 320.645 153.051 321.627C151.336 324.719 149.462 327.527 147.433 330.434L147.37 330.215C147.314 330.022 147.259 329.829 147.204 329.636L147.059 329.132C146.977 328.846 146.895 328.559 146.812 328.273C145.306 328.62 145.87 329.515 146.285 330.176C146.415 330.382 146.529 330.565 146.564 330.702C146.601 330.848 146.665 330.955 146.728 331.061C146.878 331.312 147.025 331.56 146.811 332.309C146.648 332.876 146.201 333.383 145.774 333.867C145.598 334.066 145.426 334.261 145.278 334.456C144.287 335.76 143.355 337.098 142.421 338.439C142.284 338.635 142.147 338.832 142.01 339.028C141.241 340.13 140.836 341.092 140.41 342.103C140.251 342.481 140.089 342.866 139.903 343.268C139.53 344.08 139.174 344.298 138.728 344.572C138.45 344.743 138.134 344.936 137.758 345.31C137.118 345.945 136.481 346.876 135.871 347.768C135.515 348.288 135.168 348.794 134.836 349.22C132.153 352.662 129.741 356.602 127.91 360.517C127.113 362.221 126.008 363.693 124.902 365.167C123.585 366.923 122.266 368.68 121.465 370.832C121.044 371.961 120.772 373.123 120.5 374.284C120.286 375.202 120.071 376.119 119.783 377.02C119.547 377.756 119.253 378.472 118.96 379.188C118.492 380.326 118.025 381.464 117.793 382.68C117.607 383.652 117.602 384.717 117.597 385.722C117.594 386.414 117.591 387.079 117.529 387.667C117.491 388.022 117.418 388.435 117.34 388.883L117.339 388.884C117.156 389.921 116.939 391.151 117.045 392.31C117.365 395.805 118.869 398.839 120.665 401.752C112.474 404.428 103.155 405.18 94.562 404.986C90.1701 404.886 85.1651 404.846 80.8676 405.826C80.3508 405.944 79.8589 406.068 79.3801 406.188C77.5583 406.647 75.9308 407.057 73.8633 406.9C72.1326 406.77 70.4033 406.621 68.6733 406.473C67.7964 406.399 66.9201 406.323 66.0433 406.25C66.7083 404.958 68.6895 403.373 70.1101 402.237C70.3151 402.073 70.5083 401.918 70.6845 401.775C71.0726 401.459 71.5833 401.259 72.0764 401.066C72.6058 400.859 73.1151 400.66 73.4339 400.332C73.9639 399.788 74.2176 398.634 74.4176 397.723C74.4839 397.422 74.5439 397.147 74.6064 396.931C76.5395 390.243 77.967 383.494 79.1776 376.652C81.317 364.563 82.1464 352.255 82.9364 340.091C82.962 339.694 83.0676 339.259 83.1733 338.824C83.2995 338.302 83.4264 337.781 83.4139 337.328C83.3989 336.774 83.3433 336.321 83.2901 335.889C83.2145 335.274 83.1439 334.704 83.2064 333.952C83.2389 333.562 83.4883 333.109 83.7333 332.663C83.997 332.185 84.2545 331.717 84.232 331.347C84.2151 331.065 83.982 331.005 83.7301 330.941C83.4189 330.861 83.0789 330.774 83.0795 330.253C83.0814 329.443 83.7976 328.421 84.4651 327.47C84.9158 326.826 85.3439 326.216 85.5133 325.725C85.6076 325.45 85.4445 325.12 85.2795 324.789C85.1426 324.513 85.0051 324.237 85.0139 323.988C85.0076 324.157 85.4826 322.094 85.5014 322.014C85.5626 321.757 85.6989 321.574 85.8345 321.391C86.0233 321.137 86.2108 320.884 86.1939 320.436C86.1845 320.187 86.0364 319.909 85.8839 319.622C85.6301 319.145 85.3633 318.645 85.7045 318.214C85.8864 317.984 86.302 318.046 86.7164 318.108C87.1514 318.173 87.5845 318.238 87.7414 317.963C87.9408 317.613 87.5951 316.837 87.2301 316.016C86.8745 315.216 86.5001 314.374 86.5945 313.847C86.7601 312.928 87.197 312.003 87.637 311.072C88.0308 310.239 88.427 309.4 88.6339 308.556C88.6976 308.294 88.7176 307.983 88.7376 307.66C88.7795 307.003 88.8239 306.298 89.2539 305.857C89.8633 305.231 90.4258 305.343 91.0883 305.475C91.5633 305.569 92.0889 305.673 92.7189 305.523C91.1795 304.264 90.8814 303.16 91.3358 301.321C91.6914 299.886 92.3995 298.292 94.0276 299.725C93.7845 297.583 93.7933 297.248 95.4526 295.625C95.7251 295.358 96.0051 295.03 96.2933 294.692C96.8558 294.032 97.4508 293.334 98.087 292.982C98.3783 292.687 98.6701 292.392 98.9614 292.097C99.3558 292.493 99.8251 292.718 100.368 292.769C101.25 292.724 102.048 292.655 102.792 292.59C105.973 292.313 108.156 292.122 111.62 294.302C112.103 294.606 112.585 294.89 113.061 295.17C114.366 295.937 115.634 296.682 116.769 297.765C117.498 298.46 118.168 299.207 118.838 299.955C119.755 300.978 120.672 302.002 121.742 302.892C122.334 303.385 122.923 303.852 123.506 304.314C124.963 305.468 126.382 306.593 127.7 308.004C127.942 308.262 128.183 308.526 128.424 308.792C129.706 310.202 131.019 311.644 132.74 312.484C132.884 310.308 131.759 308.344 130.666 306.436C130.572 306.272 130.478 306.109 130.386 305.946C130.246 305.699 129.226 305.035 129.249 305.109C129.187 304.902 129.273 304.709 129.357 304.522C129.441 304.336 129.521 304.155 129.449 303.971C130.053 304.497 130.663 305.11 131.286 305.735C132.493 306.947 133.746 308.205 135.085 308.969C138.158 310.72 137.116 307.678 136.443 305.716V305.715C136.39 305.561 136.34 305.414 136.294 305.276C134.491 299.872 131.226 294.693 127.45 290.331C120.844 282.701 109.824 274.182 99.2776 278.985C88.8251 283.745 83.3189 291.739 80.3195 302.373C76.8395 314.717 75.2414 326.511 74.9108 339.297C74.7208 346.617 73.9464 353.877 73.1483 361.156C72.9195 363.245 72.7301 365.384 72.5389 367.542C72.0808 372.722 71.6133 378.005 70.5639 382.929C69.6308 381.619 69.0808 380.631 68.6151 379.16C68.5333 378.903 68.5314 378.648 68.5295 378.394C68.5264 378.061 68.5239 377.729 68.3408 377.397C68.2645 377.259 68.0289 377.201 67.7989 377.143C67.5795 377.088 67.3645 377.035 67.2958 376.916L67.162 376.682C66.0158 374.691 64.4908 372.041 63.9789 369.811C63.8683 369.329 63.8414 368.926 63.8158 368.547C63.7764 367.965 63.7408 367.439 63.4126 366.765C63.1776 366.285 62.9964 366.236 62.8501 366.197C62.6795 366.151 62.557 366.118 62.4526 365.425C62.4445 365.372 62.5176 365.306 62.6158 365.22C62.8408 365.02 63.1995 364.701 63.0164 364.121C62.5426 362.621 62.1683 363.203 61.877 363.657C61.7595 363.84 61.6551 364.001 61.5639 363.998C61.1658 363.981 61.5526 362.394 61.8945 360.993C62.117 360.079 62.3208 359.245 62.2745 358.978C62.2001 358.55 62.0539 358.485 61.9058 358.42C61.7845 358.366 61.662 358.312 61.5789 358.056C61.4139 357.542 61.2114 356.8 61.087 356.088C60.9295 355.182 60.6895 354.531 60.4601 353.909C60.1395 353.04 59.8401 352.228 59.8176 350.858C59.7895 349.134 59.3758 347.783 58.9458 346.38C58.6683 345.475 58.3845 344.549 58.1933 343.487C58.147 343.234 58.2701 342.965 58.3889 342.705C58.5045 342.451 58.6164 342.206 58.5658 341.991C58.4576 341.526 58.2258 341.101 57.9895 340.669C57.7645 340.256 57.5351 339.836 57.4058 339.368C57.0901 338.226 57.3126 337.172 57.5345 336.121C57.7026 335.324 57.8708 334.527 57.8039 333.693C57.8295 334.01 57.1814 332.27 57.1408 332.116C57.0145 331.638 56.9858 331.071 56.957 330.499C56.932 330.015 56.907 329.526 56.8226 329.084C56.7801 328.864 56.7139 328.627 56.6458 328.381C56.4326 327.616 56.197 326.77 56.5882 326.13C56.7626 325.845 57.0439 325.739 57.3395 325.628C57.6439 325.513 57.9633 325.392 58.1976 325.065C57.8089 324.945 57.5276 324.882 57.3176 324.835C57.0664 324.779 56.9176 324.745 56.8089 324.663C56.652 324.544 56.5783 324.321 56.3989 323.776C56.3545 323.641 56.3033 323.486 56.2426 323.308C55.657 321.583 55.6001 320.138 57.5401 321.278C57.3839 320.908 57.1858 320.511 56.9808 320.102C56.542 319.225 56.0745 318.291 55.9389 317.44C55.8433 316.844 55.9176 316.257 55.992 315.67C56.0589 315.138 56.1264 314.606 56.067 314.067C55.9933 313.393 55.8883 312.778 55.7883 312.196C55.4395 310.158 55.1614 308.532 56.5539 306.241C54.8789 305.415 54.9089 303.133 54.9358 301.092C54.9464 300.259 54.957 299.466 54.8514 298.829C54.7795 298.396 54.6895 297.966 54.6001 297.545C54.1989 295.635 53.8276 293.87 55.3508 292.585C53.5058 291.307 53.8376 287.786 54.0908 285.101C54.1614 284.354 54.2258 283.671 54.2351 283.121C54.2558 281.91 54.2176 280.691 54.1776 279.423C54.1376 278.156 54.0958 276.838 54.1108 275.432C54.1239 274.239 53.8651 273.326 53.5689 272.279C53.4708 271.932 53.3683 271.569 53.2701 271.178C52.9676 269.971 53.0289 268.931 53.0908 267.872C53.1333 267.155 53.1758 266.429 53.1058 265.637C53.042 264.919 52.8776 264.199 52.7114 263.47C52.517 262.617 52.3195 261.751 52.2751 260.858C52.2439 260.232 52.2439 259.578 52.2445 258.919C52.2445 257.794 52.2451 256.653 52.0889 255.605C52.0183 255.13 51.9308 254.702 51.8458 254.283C51.6845 253.489 51.5301 252.731 51.5064 251.759C51.5026 251.592 51.4683 251.374 51.432 251.145C51.3726 250.772 51.3089 250.372 51.367 250.118C51.367 250.119 51.3733 250.106 51.3851 250.081C51.4883 249.862 52.0026 248.766 51.9989 249.333C52.0058 248.42 51.8264 247.516 51.642 246.583C51.3495 245.11 51.0439 243.568 51.4358 241.812C51.8958 239.758 52.2908 239.789 54.0195 239.928H54.0201H54.0214C54.2739 239.948 54.5545 239.971 54.8683 239.989L55.252 240.012C57.0676 240.12 58.8826 240.229 60.702 240.235C61.4151 240.238 62.5751 240.105 63.9132 239.952C67.3089 239.563 71.8533 239.043 73.1633 240.273C74.2789 241.321 74.0926 245.255 73.9601 248.061C73.9126 249.057 73.8726 249.91 73.8995 250.443C73.9914 252.266 73.0333 253.391 72.0026 254.6C71.1664 255.582 70.2826 256.619 69.8751 258.131C68.1414 264.564 71.0058 273.056 78.8233 273.605C86.1151 274.119 93.1101 268.338 92.1089 261.232C91.707 258.38 90.3445 255.277 87.7726 253.608C86.6033 252.849 84.8158 252.716 83.0695 252.585C81.1008 252.439 79.1845 252.296 78.2664 251.265C77.6708 250.596 77.6883 248.502 77.7014 246.973C77.7057 246.428 77.7095 245.955 77.6851 245.644C77.6558 245.273 77.5951 244.824 77.5295 244.337C77.2889 242.561 76.9833 240.299 77.9076 239.658C79.2376 238.735 83.3445 238.717 84.862 238.714L84.9914 238.713C87.092 238.708 89.0139 238.703 91.1051 238.362C93.1533 238.028 95.1989 237.844 97.2376 237.661V237.661C99.9001 237.422 102.551 237.184 105.179 236.613C109.786 235.611 114.043 234.564 118.384 232.775C119.072 237.234 120.566 241.275 122.081 245.374V245.375C122.525 246.577 122.971 247.784 123.4 249.008C124.292 251.56 125.684 254.161 127.051 256.506C127.22 256.797 127.398 257.165 127.587 257.554V257.555C128.383 259.198 129.368 261.229 130.68 259.525C130.804 260.034 130.795 260.423 130.787 260.794C130.777 261.226 130.768 261.635 130.97 262.181C131.349 263.212 132.87 264.425 134.138 265.436V265.437C134.636 265.832 135.094 266.198 135.43 266.509C136.23 267.253 137.087 267.875 137.951 268.503L137.952 268.504C138.327 268.776 138.703 269.049 139.077 269.334C139.194 269.423 139.371 269.434 139.545 269.446C139.736 269.459 139.923 269.471 140.027 269.584C140.25 269.828 140.212 270.13 140.182 270.371C140.162 270.53 140.145 270.663 140.207 270.737C141.62 272.448 143.789 273.798 145.837 275.072C146.598 275.546 147.342 276.008 148.024 276.475C151.624 278.94 155.206 281.404 158.715 283.987C160.17 285.058 161.589 286.16 163.007 287.26H163.008V287.261ZM109.598 197.032C112.251 199.98 116.361 204.48 120.471 205.369C124.492 206.239 130.803 205.031 134.391 203.127C134.233 202.258 135.116 200.75 135.939 199.343C136.441 198.487 136.92 197.669 137.13 197.055C137.331 196.462 137.365 196.001 137.4 195.539C137.424 195.205 137.449 194.871 137.538 194.485C137.611 194.169 137.743 194.002 137.863 193.85C138.032 193.636 138.179 193.452 138.106 192.917C137.982 191.994 137.29 191.489 136.613 190.996C136.096 190.618 135.588 190.248 135.349 189.701C135.25 189.477 135.36 188.676 135.45 188.015C135.498 187.662 135.541 187.349 135.543 187.188C135.564 185.893 135.444 185.068 134.764 183.956C133.687 182.194 132.066 180.763 130.47 179.353C129.611 178.595 128.76 177.843 128.003 177.049C127.342 176.355 126.947 175.63 126.533 174.872C126.328 174.495 126.118 174.11 125.868 173.717C125.602 173.296 125.255 172.915 124.912 172.538C124.453 172.035 124.001 171.539 123.761 170.969C123.558 170.486 123.499 169.91 123.439 169.328C123.385 168.801 123.331 168.269 123.168 167.797C122.858 166.904 122.378 166.101 121.899 165.298C121.538 164.695 121.177 164.091 120.888 163.448C119.516 160.392 119.161 156.754 118.835 153.409C118.803 153.084 118.772 152.761 118.74 152.443L118.546 152.486C114.415 153.416 110.444 154.309 108.158 149.887C107.863 149.317 107.808 148.151 107.756 147.034C107.701 145.862 107.648 144.744 107.324 144.417C106.879 143.968 102.424 144.252 101.916 144.657C100.089 146.114 100.103 151.113 100.112 154.356C100.114 155.142 100.116 155.826 100.091 156.329C100.016 157.871 99.8939 159.416 99.772 160.962C99.5314 164.017 99.2901 167.076 99.4045 170.126C99.7445 179.179 103.371 190.111 109.598 197.032ZM181.712 255.671C182.361 258.805 183.014 261.953 183.874 265.026C184.236 266.318 184.403 267.593 184.571 268.867C184.786 270.502 185.001 272.136 185.625 273.806C185.565 274.186 185.528 274.624 185.488 275.085C185.339 276.857 185.16 278.987 183.488 279.615C181.583 280.329 180.345 278.583 179.636 277.071C178.385 274.392 178.216 271.127 178.053 267.957C177.968 266.29 177.883 264.65 177.643 263.136C177.178 260.202 176.961 257.293 176.743 254.38C176.575 252.141 176.408 249.9 176.128 247.643C175.962 246.309 175.681 244.871 175.392 243.392C174.69 239.802 173.941 235.97 174.681 232.775C175.39 232.758 176.703 236.942 177.558 239.669C177.859 240.629 178.104 241.409 178.245 241.761C179.473 244.812 180.101 247.884 180.749 251.049C180.885 251.715 181.022 252.385 181.166 253.06C181.351 253.928 181.531 254.799 181.712 255.671Z" fill="#4741A6"/>
<path fill-rule="evenodd" clip-rule="evenodd" d="M407.731 402.953C404.843 403.817 402.135 405.09 399.352 406.227C396.193 407.519 393.988 407.745 390.538 407.74C377.183 407.721 363.966 408.382 350.586 408.642C346.931 408.713 343.221 408.748 339.567 408.684C338.091 408.658 336.644 408.497 335.176 408.38C334.226 408.305 330.089 408.853 329.538 408.532C327.986 407.633 328.908 401.838 328.719 399.981C328.392 396.757 327.545 393.65 326.366 390.621C322.147 379.783 315.053 369.209 306.082 361.473C318.211 356.562 331.443 350.086 344.904 353C350.031 354.109 356.826 355.561 359.466 360.344C362.284 365.449 364.752 371.063 367.973 375.951C371.573 381.414 375.395 386.094 380.607 390.191C382.664 391.808 393.027 401.741 391.453 394.074C390.948 391.614 389.083 389.328 387.593 387.32C386.835 386.299 382.75 382.95 383.386 381.766C384.099 380.439 391.466 379.504 393.044 379.081C396.306 378.21 399.549 377.28 402.797 376.365C401.623 378.499 395.233 386.576 399.315 388.64C400.815 389.398 404.694 386.712 406.338 386.24C409.138 385.437 411.698 385.966 414.45 386.761C414.379 388.064 411.724 388.081 410.842 388.971C409.551 390.273 408.645 393.785 409.657 395.345C411.542 398.252 418.838 395.285 422.101 396.389C418.434 400.038 412.68 401.471 407.731 402.953ZM225.49 282.957C225.528 283.033 225.459 283.138 225.02 283.505C224.886 283.041 224.648 282.939 224.355 283.067C224.591 282.819 224.785 282.689 225.02 283.505C225.205 283.35 225.359 283.158 225.49 282.957ZM226.606 281.427C226.518 281.706 226.319 281.837 226.015 281.83C226.031 281.782 226.046 281.736 226.058 281.7C226.259 281.092 226.529 281.195 226.439 280.075C226.56 280.262 226.652 280.451 226.584 280.64C226.777 280.924 226.783 281.186 226.606 281.427ZM194.143 334.024C194.451 333.307 194.532 332.473 194.93 331.814C194.54 332.483 194.534 333.308 194.143 334.024ZM319.622 408.076C314.788 407.889 310.076 407.973 305.243 408.175C294.916 408.609 284.543 408.673 274.236 409.471C269.194 409.862 264.347 410.011 259.289 409.848C254.868 409.705 250.431 409.856 246.023 409.499C241.183 409.107 236.651 407.816 231.766 407.747C227.096 407.68 221.534 407.159 217.004 407.816C216.222 407.93 215.801 408.411 214.878 408.526C213.603 408.687 211.809 408.186 210.504 408.101C208.213 407.952 205.681 408.197 203.446 407.681C202.678 407.506 202.141 407.234 201.396 406.944C200.724 406.683 199.218 406.482 198.849 406.388C200.979 405.623 196.254 404.062 195.873 403.977C195.778 404.288 195.989 404.724 196.339 405.146C195.129 404.251 196.424 404.582 194.447 403.675C193.616 403.294 192.044 403.048 191.112 402.947C190.215 402.85 189.731 402.953 189.323 402.93C189.405 402.842 189.486 402.724 189.565 402.567C190.225 401.254 188.214 399.756 187.084 400.637C187.215 400.894 187.427 401.368 187.683 401.834C187.672 401.821 187.662 401.811 187.651 401.798C187.232 401.332 186.444 400.138 185.659 399.336C186.654 398.807 185.438 398.087 184.979 397.349C184.665 397.515 184.317 397.656 184.137 397.888C184.398 397.361 185.046 396.885 184.666 395.863C184.558 395.57 184.27 395.13 183.91 394.821C184.252 395.078 184.608 395.365 185.069 395.304C184.493 394.462 184.281 394.145 184.061 393.302C183.907 392.709 184.768 392.135 183.95 391.599C183.975 391.039 184.32 388.469 182.873 389.366C182.873 389.366 182.873 389.366 182.872 389.366C182.873 389.365 182.873 389.364 182.873 389.363C183.799 386.631 185.376 383.81 186.546 381.139C189.274 374.918 192.079 368.65 194.934 362.483C199.654 352.282 204.583 342.107 210.015 332.179C215.399 322.338 221.278 312.82 226.361 302.843C231.263 293.218 236.981 284.008 241.918 274.398C244.243 269.871 247.359 266.128 248.152 260.869C248.408 259.166 248.489 255.614 245.816 256.253C244.078 256.668 241.645 260.864 240.523 262.228C239.518 260.898 233.849 253.08 232.328 257.738C231.024 261.732 239.189 263.471 235.931 267.493C235.608 267.892 234.27 268.295 233.831 268.664C232.976 269.381 232.193 270.647 231.533 271.513C230.027 273.486 228.781 275.584 227.389 277.625C227.128 278.009 226.171 278.878 226.097 279.327C226.058 279.566 226.266 279.811 226.428 280.059C225.296 281.025 223.868 281.879 223.603 283.444C223.681 283.477 223.753 283.483 223.823 283.47C222.77 284.531 221.438 287.104 221.247 287.372C219.829 289.361 218.437 291.442 217.036 293.541C216.278 294.675 214.953 296.01 214.519 297.284C214.368 297.725 214.809 298.515 214.398 298.928C213.317 300.012 212.261 299.781 211.452 301.963C211.134 302.822 211.106 304.023 210.594 304.76C209.774 305.942 208.602 306.498 207.836 307.77C206.383 310.183 204.641 312.832 203.725 315.267C203.722 315.277 203.721 315.286 203.717 315.296C203.686 315.105 203.643 314.898 203.592 314.673C203.073 315.572 202.554 316.47 202.036 317.369C202.933 317.2 203.413 316.965 203.632 316.58C203.606 316.709 203.564 316.843 203.482 316.982C203.023 317.186 202.541 317.314 202.036 317.369C201.688 317.922 201.363 318.488 201.059 319.064C200.911 319.355 200.411 321.133 200.2 322.48C200.123 321.957 200.045 321.488 200.036 321.426C199.379 322.647 198.721 323.868 198.063 325.088C199.256 324.204 199.189 324.054 200.326 324.032C198.893 324.06 196.725 325.999 196.526 327.863C196.494 328.166 196.686 328.497 196.856 328.81C196.817 328.805 196.778 328.8 196.733 328.796C195.233 328.673 195.671 328.965 195.103 330.17C195.319 330.086 196.583 329.612 197.058 329.241C197.109 329.399 197.118 329.545 197.038 329.668C196.666 330.238 193.628 329.87 195.579 331.134C193.958 330.084 193.148 333.533 193.699 334.718C193.263 335.326 192.743 335.886 192.254 336.448C191.052 337.83 190.388 338.878 189.601 340.56C188.26 343.425 186.661 346.269 185.196 349.079C184.64 350.147 183.991 351.057 183.309 352.049C182.099 353.81 182.312 353.37 183.266 355.288C182.908 355.176 182.378 355.448 181.866 355.842C182.144 355.386 182.499 355.047 183.266 355.288C182.055 352.855 181.015 355.82 180.458 357.214C180.483 357.214 180.503 357.207 180.526 357.206C180.451 357.314 180.393 357.411 180.358 357.487C179.789 358.619 179.118 359.312 179.603 360.497C179.743 359.838 180.298 359.327 180.534 358.76C180.202 360.143 178.637 361.8 178.164 362.716C177.772 363.478 177.716 364.276 177.234 365.104C176.781 365.881 176.373 366.405 176.025 367.295C174.343 371.595 173.523 376.385 172.462 380.902C171.207 386.239 170.69 391.911 170.421 397.374C170.343 398.962 170.3 400.366 170.893 401.873C170.979 402.092 171.903 403.255 171.879 403.681C171.751 405.903 167.423 405.441 165.758 405.377C163.111 405.275 161.309 405.687 158.766 406.042C156.421 406.368 154.119 406.189 151.737 406.744C147.781 407.666 141.891 409.126 138.066 407.101C136.216 406.122 133.888 403.285 132.546 401.692C130.894 399.732 130.338 397.736 130.042 395.24C129.537 390.968 129.503 386.249 131.043 382.167C138.198 363.2 150.474 345.959 161.061 328.697C170.995 312.5 182.132 297.147 192.086 280.993C197.349 272.454 203.679 264.006 209.939 256.114C216.336 248.048 220.901 239.271 225.412 230.141C230.087 232.531 235.036 234.989 240.264 236.07C243.236 236.684 246.187 236.498 249.184 236.696C251.393 236.842 253.241 237.345 255.491 237.4C265.356 237.643 276.755 236.503 286.185 233.694C288.448 233.019 290.471 232.32 292.592 231.349C295.299 230.109 296.031 229.583 296.185 232.465C296.483 238.043 297.427 243.466 297.871 249.012C298.305 254.419 299.434 259.75 300.433 265.091C300.939 267.796 301.484 270.499 301.899 273.218C302.214 275.281 303.164 278.151 302.786 280.214C302.37 282.49 300.133 284.801 298.852 286.744C297.553 288.715 296.246 290.682 294.951 292.655C292.52 296.356 290.101 299.868 287.231 303.263C281.911 309.558 277.381 316.14 272.336 322.641C266.979 329.544 262.526 336.999 257.269 343.972C254.492 347.656 251.652 351.13 249.832 355.279C248.322 358.72 245.284 361.885 243.426 365.291C240.986 369.762 237.883 373.857 235.46 378.351C233.769 381.489 230.502 384.682 230.159 388.329C229.585 394.449 235.619 388.333 237.016 386.627C238.889 384.339 240.944 380.334 243.758 379.093C245.768 378.207 248.705 378.303 250.886 377.61C253.173 376.883 255.418 376.128 257.727 375.464C262.224 374.168 266.563 372.339 270.936 370.694C275.461 368.991 279.986 367.272 284.426 365.379C286.483 364.502 288.214 364.052 290.411 363.671C291.356 363.506 294.738 361.966 295.482 362.097C296.733 362.316 298.456 365.86 299.404 366.771C300.866 368.177 302.509 369.325 303.874 370.837C306.564 373.815 309.413 376.988 311.744 380.223C316.954 387.452 321.828 395.351 323.681 404.059C324.513 407.968 323.542 408.227 319.622 408.076ZM184.119 398.625C184.087 398.558 184.067 398.496 184.054 398.435C184.071 398.496 184.085 398.556 184.119 398.625C184.736 398.271 184.899 398.459 184.962 398.748C184.652 398.555 184.362 398.485 184.119 398.625ZM182.682 394.589C182.656 394.48 182.645 394.379 182.641 394.283C182.65 394.385 182.658 394.486 182.682 394.589C183.019 394.371 183.301 394.433 183.572 394.589C183.284 394.438 182.973 394.4 182.682 394.589ZM183.302 391.947C183.491 391.934 183.707 391.834 183.95 391.599C183.751 391.792 183.563 391.995 183.392 392.207C183.395 392.181 183.399 392.156 183.401 392.129C183.405 392.078 183.362 392.016 183.302 391.947ZM121.869 369.819C120.465 373.012 119.881 376.505 118.688 379.775C117.775 382.276 117.411 384.747 117.171 387.363C118.004 387.955 117.985 388.476 117.116 388.926C117.054 389.495 117.033 390.066 117.053 390.638C116.826 392.304 117.159 393.753 117.617 395.349C118.341 397.881 119.259 399.7 120.606 401.888C112.431 404.562 103.116 405.315 94.5388 405.122C89.9032 405.017 84.7026 405.007 80.1851 406.109C75.3207 407.297 71.0557 406.801 66.0582 406.386C66.7882 404.968 69.5782 402.602 70.9913 401.617C71.7107 401.116 72.8938 401.03 73.4388 400.469C74.2176 399.669 74.3088 398.116 74.6107 397.067C76.5382 390.379 77.9651 383.634 79.1757 376.793C81.3088 364.733 82.3001 352.389 82.9295 340.238C82.9826 339.211 83.5332 338.057 83.5063 337.084C83.4713 335.805 83.092 335.386 83.1988 334.101C83.2682 333.262 84.3101 332.125 84.2351 331.379C84.187 330.912 83.0007 331.315 83.072 330.402C83.1832 328.993 85.0732 327.138 85.5026 325.874C85.6932 325.312 84.982 324.752 85.0038 324.138C84.9976 324.313 85.4732 322.238 85.4913 322.164C85.6345 321.568 86.2138 321.317 86.1826 320.587C86.1538 319.923 85.1507 319.053 85.6938 318.365C86.2432 317.669 87.3813 318.722 87.7276 318.113C88.1213 317.423 86.3901 315.067 86.5826 313.999C86.9195 312.128 88.2388 310.117 88.7557 308.218C88.9495 307.505 88.6376 306.626 89.2382 306.009C90.2838 304.936 91.1907 306.037 92.6988 305.676C91.2026 304.451 90.8738 303.27 91.3176 301.475C91.6776 300.017 92.3719 298.439 94.0057 299.88C93.7901 297.981 93.5601 297.789 94.9738 296.203C96.1945 294.834 97.7763 293.194 99.2376 292.146C101.421 290.577 104.908 289.771 107.498 289.586C110.324 289.386 113.799 290.846 115.939 292.906C118.541 295.412 121.907 297.238 124.859 299.634C128.012 302.191 130.719 305.229 133.748 307.94C134.369 308.497 135.514 310.053 136.475 309.786C138.042 309.349 136.776 307.094 136.433 306.091C133.991 298.957 129.602 291.768 123.564 286.901C120.451 284.39 117.353 281.214 113.733 279.386C110.809 277.908 108.526 278.141 105.417 278.035C102.76 277.945 102.214 277.793 99.8445 278.872C98.1645 279.636 96.5013 280.382 94.9163 281.316C92.382 282.81 89.7676 284.625 87.8945 286.882C82.9076 292.893 80.9613 300.535 79.0013 307.86C76.8451 315.916 75.3607 323.787 75.0988 332.146C74.8332 340.652 74.4244 349.032 73.5551 357.503C73.1026 361.908 72.582 366.304 71.9913 370.695C71.4476 374.742 71.4194 379.093 70.5732 383.068C69.5082 381.571 69.177 380.415 68.5888 378.802C68.192 377.716 67.7895 377.754 67.2151 376.953C65.9982 375.259 64.477 372.045 63.9976 369.953C63.7045 368.675 63.9757 368.033 63.432 366.908C63.2638 366.561 62.3501 366.833 62.2038 366.282C62.0988 365.887 62.6713 365.582 62.6457 365.447C62.5857 365.136 63.4745 364.79 62.707 363.81C61.6163 362.419 62.1744 364.164 61.5857 364.14C61.0951 364.121 62.5669 359.319 62.3938 358.622C62.3326 358.376 61.4982 358.343 61.4313 358.114C61.2288 357.422 61.2745 356.419 61.077 355.667C60.5938 353.833 59.877 353.098 59.842 351.003C59.7951 348.235 58.7313 346.275 58.2195 343.634C58.1207 343.126 58.7001 342.576 58.592 342.138C58.372 341.244 57.6857 340.461 57.4332 339.515C56.947 337.693 57.5963 335.123 57.4632 333.641C57.3463 332.345 56.9695 330.241 56.7213 328.631C56.3176 326.009 57.0432 326.865 58.2238 325.215C56.5869 324.706 56.7951 325.154 56.272 323.458C55.6682 321.498 55.7238 320.343 57.5676 321.428C57.0776 320.264 56.1682 318.838 55.9682 317.591C55.7826 316.433 56.222 315.368 56.0963 314.218C55.7557 311.105 54.7482 309.415 56.5826 306.394C54.2251 305.23 55.252 301.22 54.882 298.983C54.4845 296.568 53.5176 294.313 55.3813 292.74C53.4651 291.411 54.2238 287.598 54.232 285.561C54.2351 284.637 54.5601 283.012 54.4776 282.191C54.4201 281.615 54.0132 281.227 53.8951 280.556C53.4595 278.066 54.4213 275.602 53.8426 273.125C53.1907 270.335 53.1145 267.955 52.8907 265.22C52.6745 262.57 52.2495 259.815 52.0663 257.098C51.9313 255.082 51.1157 252.9 51.4913 250.811C51.5213 250.647 52.0188 249.161 52.0332 249.496C52.0101 248.959 51.6045 248.295 51.5857 247.975C51.4526 245.557 51.4045 243.586 51.512 241.132C51.507 241.132 51.5013 241.131 51.4963 241.131C51.807 240.949 51.9738 240.571 51.987 239.982C54.3326 239.763 56.8988 240.315 59.2688 240.376C61.8238 240.441 64.3701 240.318 66.922 240.205C68.5632 240.132 72.1013 239.382 73.3513 240.703C74.2563 241.661 73.687 246.588 73.7476 247.869C73.8188 249.384 74.6138 251.76 73.6951 253.085C73.1251 253.907 71.837 254.235 71.1732 255.138C70.7688 255.687 70.4401 256.607 70.2257 257.204C69.577 259.001 69.3182 260.941 69.4176 262.838C69.8863 271.721 77.2694 275.801 85.5594 272.221C92.7813 269.103 94.7451 259.672 88.5401 254.387C87.0795 253.143 85.5226 252.827 83.6582 252.52C82.4732 252.325 79.2401 252.444 78.4657 251.629C77.697 250.82 77.8845 248.297 77.7995 247.246C77.6626 245.561 76.9594 243.056 77.3407 241.43C76.7163 240.074 77.1326 239.501 78.592 239.709C79.0538 239.62 79.5157 239.53 79.9776 239.44C81.1413 239.237 82.2844 238.992 83.4663 238.914C85.5726 238.774 87.6263 239.015 89.7345 238.744C91.802 238.477 93.8282 237.978 95.8994 237.72C98.1007 237.446 100.262 237.751 102.44 237.391C106.961 236.645 111.819 235.641 116.048 233.927C117.181 233.469 119.101 232.147 120.358 232.365C121.863 232.627 121.461 233.55 121.894 234.931C124.299 242.588 129.296 250.153 134.584 256.24C139.576 261.986 146.157 266.621 152.109 271.44C155.718 274.362 159.183 277.434 162.533 280.627C164.964 282.945 167.573 286.569 170.713 287.907C171.429 287.932 174.189 287.627 174.694 288.126C175.276 288.7 175.241 289.022 175.008 289.38C175.675 287.686 172.501 287.971 170.713 287.907C170.916 288.235 172.924 292.118 173.421 289.958C173.709 290.124 173.998 290.29 174.286 290.455C172.859 293.495 171.011 296.542 169.004 299.262C167.541 301.246 165.651 302.681 164.338 304.736C162.681 307.331 161.301 310.023 159.201 312.334C155.014 316.945 152.684 323.144 149.034 328.26C147.28 330.719 146.364 333.004 144.539 335.451C143.111 337.366 140.799 339.789 139.966 341.992C139.634 342.873 139.991 343.637 139.383 344.453C138.998 344.969 137.859 345.529 137.323 346.063C135.189 348.188 133.526 351.218 131.854 353.717C130.072 356.379 128.83 359.139 127.321 361.911C125.773 364.756 123.211 366.771 121.869 369.819ZM66.5045 377.977C66.6195 378.276 65.9282 378.784 64.092 378.597C65.9107 378.782 66.607 378.279 66.5045 377.977ZM61.9895 387.977C62.1538 388.117 62.3132 388.264 62.4688 388.414C62.3138 388.264 62.1538 388.117 61.9895 387.977ZM50.5376 408.886C49.042 408.382 45.152 407.491 42.6188 406.438C43.7488 406.743 44.9251 406.994 45.3776 407.146C47.097 407.726 48.817 408.306 50.5376 408.886C52.9738 400.418 62.1213 397.19 69.9488 394.063C66.1782 393.911 64.8313 390.755 62.552 388.499C64.8263 390.749 66.1951 393.911 69.9488 394.063C62.1226 397.19 52.9738 400.419 50.5376 408.886ZM41.9813 400.361C41.8951 400.498 41.8101 400.64 41.7245 400.795C41.4913 401.216 40.6126 403.097 40.2432 404.333C40.1688 403.063 40.9507 401.577 41.9813 400.361ZM50.5932 239.569C50.7326 239.516 50.8451 239.507 50.947 239.514C50.5382 239.533 50.427 240.001 50.4088 240.651C50.0538 240.287 49.9688 239.81 50.5932 239.569ZM79.0038 259.138C81.6695 260.414 84.2563 261.157 86.7995 262.701C83.6795 265.04 73.7188 268.817 74.0163 261.589C74.0513 260.747 74.562 258.485 75.3588 257.984C76.5713 257.222 77.947 258.632 79.0038 259.138ZM48.4876 225.485C60.2263 229.435 73.902 228.459 85.8326 226.532C98.6513 224.463 111.449 223.244 123.867 219.37C123.879 221.037 124.629 222.783 123.259 224.158C122.185 225.235 119.857 225.439 118.438 225.893C114.725 227.08 111.536 228.809 107.656 229.518C103.309 230.313 98.9676 230.297 94.5832 230.767C92.9957 230.937 91.5026 231.211 90.0113 231.488C87.9463 231.518 86.3282 231.788 84.2663 232.34C76.8913 232.373 69.5663 232.584 62.222 231.737C58.492 231.306 54.8026 230.779 51.0632 230.412C47.5607 230.068 48.3426 228.612 48.4876 225.485ZM43.997 195.104C37.0838 196.945 29.9538 196.394 23.1526 194.286C18.2338 192.763 11.7095 190.53 10.6751 184.758C9.99196 180.951 12.3588 180.261 15.142 178.68C16.4738 177.924 17.1213 177.353 18.017 176.072C18.5488 175.31 19.0263 173.401 19.6232 172.881C21.077 171.612 25.6651 172.726 27.9401 172.628C31.3301 172.482 33.6276 171.383 36.7463 170.413C42.2551 168.7 45.7413 166.623 50.0176 162.703C54.177 158.891 59.0613 155.013 62.4245 150.52C66.1913 145.489 69.7957 140.594 73.8988 135.796C76.9395 132.24 82.4551 125.123 87.9107 125.156C90.6488 125.172 90.2438 127.662 92.4182 128.928C94.4038 130.083 97.0013 129.279 99.1838 129.079C97.7451 132.232 95.7501 135.474 96.4557 139.042C96.852 141.04 97.062 141.73 96.2526 143.62C95.5132 145.347 94.7132 146.878 94.2551 148.727C92.4713 155.935 91.6269 164.047 92.3751 171.417C93.6707 184.176 98.2045 197.349 108.123 206.355C110.384 208.409 112.871 210.05 115.639 211.401C118.402 212.749 118.631 214.152 115.209 214.754C108.544 215.926 101.778 216.727 95.0651 217.597C88.3613 218.466 81.5382 219.375 74.7782 219.508C71.4338 219.574 68.1101 219.976 64.7663 219.747C63.1013 219.633 61.447 219.346 59.777 219.302C58.3195 219.263 56.1432 219.965 54.7863 219.411C52.6626 218.544 53.7188 212.551 53.5632 210.47C53.3838 208.082 51.8207 203.603 52.7488 201.346C53.4013 199.761 55.7951 199.096 57.0351 197.863C59.0707 195.838 60.9951 193.439 61.7726 190.679C64.3495 192.685 62.1326 193.971 62.9145 196.417C63.7682 199.085 65.3426 198.246 66.5751 196.416C68.632 193.359 68.4945 188.636 66.527 185.588C65.3882 183.826 63.5382 182.502 61.6401 181.559C60.1045 180.797 56.7051 179.302 55.0045 179.964C50.3888 181.763 55.3013 187.077 57.6476 188.339C57.0838 189.909 53.0857 192.174 51.5613 192.845C49.297 193.841 46.4276 194.457 43.997 195.104ZM107.348 146.427C107.408 147.282 107.503 148.099 107.796 148.918C108.393 150.586 109.587 152.032 111.233 152.857C114.425 154.46 120.9 152.152 123.706 150.262C123.706 155.993 124.772 160.551 126.478 165.988C128.127 171.249 131.503 175.53 134.376 180.2C135.865 182.622 137.233 185.122 139.336 187.111C141.474 189.132 141.829 189.907 141.634 192.887C141.314 197.796 138.889 201.143 134.306 203.176C130.676 205.116 123.179 206.693 119.223 205.072C115.065 203.366 111.015 198.953 108.322 195.555C102.204 187.837 99.1013 176.211 99.4732 166.615C99.667 161.617 99.9407 156.502 100.437 151.522C100.798 147.894 100.666 142.678 106.14 144.312C107.909 144.84 107.205 144.447 107.348 146.427ZM128.351 213.45C128.879 212.413 133.524 211.371 134.333 211.979C135.56 212.901 135.611 218.28 136.042 219.811C136.725 222.241 137.624 224.642 138.708 226.934C140.981 231.741 144.243 236.705 148.113 240.449C152.123 244.327 156.731 247.014 161.601 249.793C162.992 250.588 164.339 251.547 165.768 252.268C166.368 252.57 167.48 252.712 167.953 253.167C169.121 254.294 168.581 256.606 168.567 258.072C168.511 263.949 168.531 269.635 169.339 275.432C164.568 271.871 160.257 267.352 156.009 263.2C151.556 258.847 145.82 255.973 141.597 251.363C137.754 247.169 134.73 242.281 131.907 237.429C130.671 235.304 128.315 232.594 128.23 230.11C128.138 227.431 129.405 224.595 129.42 221.821C129.429 219.858 127.567 214.991 128.351 213.45ZM185.644 273.439C185.354 275.214 185.586 279.019 183.025 279.4C181.263 279.664 180.179 278.051 179.533 276.7C177.581 272.617 178.226 267.171 177.498 262.784C176.638 257.606 176.617 252.5 175.952 247.314C175.365 242.741 173.409 236.973 174.475 232.466C175.442 232.443 178.054 241.261 178.618 242.659C179.778 245.538 181.113 247.96 182.117 250.945C183.446 254.898 184.599 258.673 185.212 262.81C185.643 265.717 187.258 270.881 185.644 273.439ZM199.806 253.943C197.417 257.519 194.837 261.246 191.47 264.229C191.47 262.561 190.176 257.137 191.053 255.847C192.098 254.311 198.026 254.241 199.806 253.943ZM107.129 113.104C109.159 112.216 111.423 111.936 113.471 111.018C115.428 110.14 116.881 109.611 119.054 109.438C126.604 108.841 134.292 110.704 141.278 112.743C145.122 113.864 148.155 116.322 151.403 118.451C154.762 120.653 156.604 122.57 158.067 126.296C161.214 134.312 163.151 141.891 164.403 150.343C165.673 158.918 163.61 167.587 163.739 176.18C163.865 184.658 164.493 193.484 167.286 201.557C169.446 207.798 173.273 217.845 181.34 218.468C188.998 219.058 195.476 211.445 198.641 205.73C207.011 190.621 210.156 173.349 210.609 156.391C211.791 150.716 212.467 144.598 214.515 139.155C216.793 142.59 218.65 146.275 220.744 149.815C223.042 153.7 222.894 156.87 222.695 161.285C222.541 164.717 221.285 167.998 220.828 171.416C220.301 175.362 219.333 179.209 219.099 183.195C218.826 187.895 219.098 192.643 218.688 197.331C218.343 201.273 217.44 205.233 216.785 209.139C216.149 212.934 216.071 216.671 216.164 220.455C216.255 224.117 217.568 227.673 220.786 229.633C216.003 235.324 210.04 243.705 202.028 245.054C199.341 245.506 196.833 245.858 194.113 246.05C191.901 246.205 189.316 247.402 187.409 246.073C184.126 243.784 183.478 238.683 182.238 235.348C181.379 233.04 172.869 214.143 168.39 219.497C167.592 220.451 167.78 223.952 167.658 225.295C167.482 227.232 167.563 229.201 167.499 231.145C167.418 233.618 167.19 236.127 167.368 238.6C167.476 240.092 168.405 241.702 166.653 242.061C165.032 242.394 161.614 239.288 160.434 238.483C158.851 237.404 157.143 236.594 155.539 235.554C152.242 233.417 149.626 230.726 147.279 227.676C144.917 224.607 142.814 221.163 141.216 217.658C140.404 215.88 139.741 214.058 139.063 212.232C139.078 212.272 138.056 209.969 138.113 209.808C138.293 209.293 140.452 208.438 140.985 208.032C147.078 203.395 148.298 191.866 146.678 185.122C145.698 181.041 142.455 177.456 140.152 173.983C137.927 170.627 135.573 167.34 133.728 163.768C131.693 159.834 130.12 155.703 128.294 151.68C127.413 149.739 126.356 148.739 127.672 146.961C128.478 145.871 130.147 145.424 130.865 144.231C131.588 143.031 131.663 140.714 130.363 139.856C128.939 138.917 126.871 140.228 125.568 140.74C123.828 141.422 122.089 141.753 120.314 142.277C118.298 142.874 116.483 144.192 114.343 144.192C115.494 140.371 120.466 140.733 122.079 137.18C123.181 134.751 123.037 130.232 119.601 129.832C117.65 129.604 116.111 131.04 114.661 132.003C112.751 133.269 111.31 133.506 109.073 133.903C108.249 134.049 106.913 134.793 106.131 134.54C104.864 134.13 105.595 134.384 106.259 133.379C107.246 131.885 109.579 130.427 110.99 129.337C114.161 126.886 118.557 125.119 121.304 122.269C123.12 120.384 124.013 114.049 120.562 113.038C119.178 112.632 116.927 113.955 115.571 114.36C113.28 115.043 110.946 115.588 108.686 116.367C104.67 117.752 100.814 119.397 96.7401 120.64C99.0607 117.454 103.469 114.707 107.129 113.104ZM242.921 112.171C242.921 114.36 243.788 118.522 242.81 120.512C241.929 122.304 236.575 123.304 234.684 123.988C228.561 126.206 222.489 128.675 216.23 130.512C222.681 121.3 232.266 115.953 242.921 112.171ZM242.019 82.4274C240.433 84.6245 237.674 87.6033 234.448 86.565C230.969 85.4459 228.244 80.3103 230.021 77.0513C231.54 74.2678 235.873 72.5208 238.548 74.7149C239.131 75.1934 239.512 76.4174 240.071 76.7916C240.429 77.0314 240.998 76.3896 241.435 76.6463C242.729 77.4039 243.228 79.2533 245.094 79.0984C245.958 79.0273 248.726 76.8512 249.293 76.295C250.809 74.8059 250.281 73.2801 250.52 71.3233C250.851 68.6272 252.779 68.2138 254.999 66.8229C257.113 65.4977 258.812 63.5223 260.903 62.2465C263.399 60.7225 261.968 62.6545 264.248 62.8456C264.659 62.8805 265.578 61.5626 266.292 61.5843C267.218 61.6132 267.619 62.2068 268.147 62.8546C269.296 64.2617 268.451 64.7035 270.453 65.0313C271.898 65.2681 272.793 64.2557 274.029 64.2756C275.039 63.1722 276.536 60.8683 278.343 61.5487C279.566 62.0091 280.004 64.4799 280.266 65.5116C281.259 69.4226 281.184 74.0195 281.221 78.0306C278.897 76.4577 278.596 75.4013 277.869 72.8655C277.398 71.2179 276.258 68.7965 275.015 71.2715C274.662 71.9742 274.965 73.0511 274.731 73.823C274.461 74.7179 273.813 75.1591 273.711 76.1353C273.468 78.5042 275.479 79.316 277.216 80.4694C275.596 82.1532 270.934 80.8822 272.177 84.4775C273.491 88.2759 278.541 86.1727 281.059 85.2193C283.206 93.0668 273.667 96.8476 267.854 98.9936C264.441 100.254 263.106 100.956 262.636 104.798C262.234 108.091 262.694 111.464 263.947 114.54C264.449 115.773 264.929 117.458 265.614 118.6C266.195 119.566 267.351 119.634 267.741 120.173C269.178 122.162 268.143 126.479 267.975 128.866C267.516 135.395 265.406 141.34 264.5 147.711C264.035 150.97 262.643 154.02 262.046 157.241C261.498 160.195 261.282 162.985 258.699 165.098C253.51 169.343 249.497 163.073 247.699 158.952C245.138 153.082 244.882 145.367 245.304 139.108C245.764 132.303 248.993 125.766 249.163 119.012C249.346 111.789 248.214 104.931 246.341 97.9474C245.521 94.8951 244.329 92.1628 243.318 89.2117C242.491 86.7988 243.859 84.6197 242.019 82.4274ZM255.508 10.9707C255.509 10.9761 255.509 10.981 255.51 10.9865C255.477 10.951 255.444 10.9171 255.408 10.8756C255.446 10.9187 255.478 10.9482 255.508 10.9707ZM255.663 10.2941C255.586 9.7842 255.416 9.14258 255.301 8.85405C255.581 9.02073 255.901 9.16066 255.911 9.33555C255.941 9.83723 255.792 10.0733 255.663 10.2941ZM263.367 11.5822C263.313 11.6117 263.261 11.6439 263.206 11.6724C263.078 11.6724 262.97 11.6461 262.874 11.6051C262.911 11.6128 262.951 11.6188 262.998 11.6221C263.123 11.6308 263.246 11.6128 263.367 11.5822ZM267.394 10.3028C266.673 10.2973 265.913 10.2323 265.07 10.5848C265.204 10.5072 265.338 10.4378 265.473 10.3914C265.851 10.2624 266.648 10.2766 267.394 10.3028ZM226.549 201.184C226.704 197.916 226.703 196.935 229.365 194.828C231.585 193.072 233.733 191.228 235.976 189.498C240.942 185.666 246.249 181.609 251.895 178.747C255.059 177.145 263.691 173.914 261.509 180.242C259.451 186.214 255.478 191.518 252.058 196.824C248.571 202.232 245.084 207.644 241.462 212.969C239.886 215.285 238.224 217.556 236.716 219.913C235.233 222.234 235.081 223.799 232.038 222.838C229.828 222.139 227.33 221.289 225.244 220.38C223.413 219.583 223.523 219.095 223.473 217.02C224.606 211.655 226.287 206.735 226.549 201.184ZM240.721 135.801C239.951 138.791 234.429 139.146 231.449 139.726C230.938 139.825 228.343 140.635 227.859 140.357C226.903 139.809 227.373 138.225 226.966 137.458C224.735 133.258 224.703 138.627 224.067 139.891C222.328 143.355 219.664 136.42 218.688 134.722C217.936 133.416 217.131 132.751 217.909 131.654C218.557 130.741 222.161 130.114 223.268 129.72C227.305 128.283 231.331 126.818 235.358 125.353C237.091 124.722 242.428 121.417 242.369 124.593C241.794 128.248 241.641 132.226 240.721 135.801ZM237.703 171.496C236.004 172.005 231.391 174.046 229.673 173.083C228.223 172.271 229.225 169.423 229.388 167.941C229.696 165.147 229.651 162.107 229.486 159.305C229.244 155.166 228.887 154.839 233.123 153.726C234.759 153.295 239.756 150.965 240.972 152.279C241.54 152.893 241.299 154.844 241.424 155.588C241.695 157.197 242.161 158.771 242.771 160.291C243.824 162.917 245.363 165.276 246.973 167.612C244.086 169.325 240.93 170.528 237.703 171.496ZM228.113 142.228C228.846 141.211 232.496 141.067 233.703 140.821C235.835 140.386 237.969 139.955 240.103 139.521C240.217 142.026 241.686 148.569 239.817 150.376C238.766 151.393 235.251 151.655 233.763 152.008C232.142 152.393 230.518 152.77 228.894 153.148C228.711 150.733 228.558 148.318 228.291 145.909C228.193 145.024 227.516 143.055 228.113 142.228ZM228.534 175.301C229.656 174.056 232.693 174.092 234.381 173.712C237.07 173.105 239.619 172.277 242.164 171.251C243.588 170.677 246.394 168.713 247.969 169.211C248.41 169.35 249.333 171.102 249.669 171.431C250.243 171.994 250.984 172.375 251.649 172.82C253.483 174.044 254.595 174.425 256.756 174.84C245.451 179.31 236.367 187.264 227.015 194.601C226.351 194.064 226.72 189.268 226.793 188.168C226.928 186.125 227.019 184.057 227.178 182.008C227.308 180.324 227.341 176.624 228.534 175.301ZM262.868 218.792C262.526 220.653 262.474 223.208 261.648 224.927C260.889 226.501 260.981 226.391 258.964 226.438C256.416 226.498 253.494 226.909 251.026 226.161C253.229 221.47 255.063 216.372 258.078 212.091C259.024 210.747 260.853 207.306 262.833 207.511C264.821 207.717 264.384 209.639 264.227 211.029C263.933 213.626 263.339 216.221 262.868 218.792ZM272.793 145.611C274.323 135.49 274.194 125.595 274.194 115.404C276.636 115.715 279.326 115.519 281.68 116.185C280.92 118.522 278.728 120.63 280.898 122.849C283.101 125.102 288.238 126.09 291.215 126.92C294.703 127.892 298.259 129.08 301.844 129.658C303.454 129.917 305.209 130.169 306.834 129.867C309.408 129.391 309.634 128.733 311.326 131.288C311.335 131.302 311.349 131.323 311.359 131.338C310.87 131.067 309.32 131.23 309.733 131.241C309.794 131.448 309.884 131.652 309.937 131.843C309.48 131.481 308.471 131.176 308.331 131.152C306.648 130.867 304.513 131.595 302.893 131.956C299.259 132.766 295.652 133.647 292.133 134.846C289.17 135.855 286.236 136.984 283.41 138.31C281.228 139.332 276.19 141.134 275.502 143.641C274.182 148.446 287.349 152.098 290.56 153.725C293.593 155.261 292.635 157.54 292.669 160.592C292.706 163.907 293.018 167.191 292.779 170.498C292.595 173.061 292.391 172.664 289.74 172.618C287.754 172.584 285.768 172.507 283.784 172.621C280.985 172.781 278.111 173.155 275.484 174.137C271.554 175.605 264.006 182.593 271.527 184.723C274.624 185.6 278.618 185.279 281.792 185.068C284.545 184.884 288.859 183.676 291.516 184.589C292.901 184.21 293.4 184.696 293.014 186.044C293.078 186.969 293.143 187.894 293.206 188.818C293.334 190.679 293.463 192.54 293.591 194.4C293.854 198.208 294.116 202.016 294.378 205.823C292.069 202.669 288.894 196.447 283.976 197.158C279.755 197.768 277.259 204.079 275.9 207.337C274.795 209.983 274.081 212.757 273.334 215.511C272.616 218.16 272.354 221.904 271.042 224.305C269.749 226.669 267.952 225.875 265.305 226.119C261.996 226.422 263.329 224.636 263.856 221.924C264.657 217.793 267.492 210.667 264.758 206.816C261.267 201.902 256.335 211.008 254.994 213.468C253.741 215.767 252.671 218.149 251.712 220.575C251.092 222.141 250.591 225.522 248.991 226.378C247.032 227.429 243.926 225.75 242.126 225.201C240.013 224.556 237.703 224.287 235.533 223.865C241.712 214.538 248.138 205.351 254.133 195.915C257.129 191.198 260.91 186.244 262.556 180.906C262.869 179.896 263.252 178.93 263.124 177.855C263.014 176.937 261.583 175.494 261.674 174.857C261.809 173.914 263.774 173.126 264.693 172.134C267.886 168.687 268.688 164.585 269.679 160.203C270.758 155.435 272.065 150.428 272.793 145.611ZM284.857 116.686C289.563 115.709 294.911 118.316 298.846 120.421C301.443 121.809 308.372 124.712 308.639 128.113C308.567 127.191 302.194 127.766 300.934 127.796C295.551 126.672 289.809 125.156 284.785 122.916C282.956 122.1 280.807 121.301 281.474 119.207C281.911 117.831 283.523 116.963 284.857 116.686ZM279.398 183.592C276.423 183.427 265.621 183.54 271.057 178.34C274.46 175.083 280.727 174.376 285.254 174.359C286.876 174.353 288.474 174.476 290.085 174.635C290.526 174.686 290.969 174.736 291.411 174.787C292.761 174.528 293.181 175.067 292.674 176.402C292.916 177.184 293.304 181.819 292.593 182.471C291.648 183.336 288.64 182.954 287.532 183.037C284.811 183.242 282.128 183.607 279.398 183.592ZM295.195 222.986C287.368 224.111 279.554 225.544 271.618 225.664C272.803 220.086 274.183 214.52 276.339 209.207C277.718 205.812 280.221 198.48 285.044 198.841C288.895 199.129 293.389 205.491 294.462 208.741C295.861 212.977 295.195 218.58 295.195 222.986ZM315.296 138.198C315.14 138.971 311.627 140.362 310.876 140.782C305.457 143.818 300.631 148.319 297.388 153.433C297.027 151.459 297.084 147.715 295.368 146.313C292.348 143.845 292.969 149.375 292.608 151.064C292.269 152.649 292.69 152.392 291.273 152.533C290.016 152.658 286.809 150.388 285.649 149.816C282.444 148.236 279.371 146.515 276.292 144.72C278.843 140.657 286.366 138.791 290.65 137.166C296.807 134.83 302.876 133.634 309.391 132.667C310.481 133.214 310.623 131.984 311.436 131.709C311.482 131.645 311.497 131.592 311.499 131.542C312.456 132.913 315.529 137.047 315.296 138.198ZM323.266 192.96C326.299 206.393 327.054 220.37 330.884 233.641C334.526 246.256 337.759 258.816 341.966 271.261C344.389 278.429 346.639 285.669 349.878 292.553C352.136 297.353 353.929 307.593 359.432 309.84C363.034 311.311 364.632 310.009 364.247 306.486C363.913 303.421 362.265 301.496 360.904 298.849C360.431 297.927 358.888 295.325 359.056 294.347C359.264 293.131 359.585 293.262 360.901 292.66C363.693 291.383 366.478 290.519 369.451 289.779C368.251 291.573 365.855 294.138 365.663 296.333C365.503 298.143 366.852 301.463 368.718 302.158C370.481 302.815 372.554 301.43 374.064 300.586C375.811 299.608 377.477 299.336 379.4 298.642C376.949 302.047 372.933 304.76 374.653 309.445C376.487 314.442 382.178 310.355 385.817 309.791C384.778 313.662 380.166 318.077 376.849 320.232C374.622 321.678 372.206 322.982 369.816 324.153C368.891 324.606 367.675 324.883 366.825 325.423C366.503 325.628 365.959 326.5 365.665 326.636C361.537 328.558 355.907 329.049 351.416 329.973C346.468 330.99 342.208 331.239 337.114 331.003C332.899 330.808 328.231 328.312 324.709 326.215C322.031 324.622 321.64 322.674 320.807 319.861C319.425 315.198 318.188 310.505 316.869 305.826C315.733 301.793 315.203 297.918 314.433 293.825C312.801 285.151 312.049 276.341 310.299 267.683C308.56 259.082 307.979 250.37 307.498 241.579C307.266 237.345 306.551 233.026 306.333 228.874C306.156 225.497 306.216 222.099 306.235 218.626C306.249 216.185 305.352 213.745 305.413 211.295C305.467 209.129 305.673 207.178 305.436 204.99C304.93 200.327 304.534 195.721 304.154 191.051C303.413 181.95 301.231 172.969 300.36 163.906C299.984 159.987 304.446 156.228 307.468 153.946C310.689 151.513 313.274 148.097 316.819 146.182C318.132 161.901 319.785 177.538 323.266 192.96ZM269.88 361.012C266.385 362.514 262.891 364.019 259.394 365.519C256.824 366.622 253.451 368.888 250.626 368.684C252.634 366.06 253.9 363.061 256.042 360.513C258.18 357.968 259.945 355.266 261.879 352.578C264.42 355.567 267.018 358.305 269.88 361.012ZM270.624 347.821C275.912 345.132 283.424 340.022 289.623 340.986C294.086 341.68 299.143 344.832 301.838 348.302C303.103 349.93 304.368 351.448 305.814 353.044C307.14 354.506 307.821 354.316 306.661 355.84C305.769 357.013 303.668 357.807 302.299 358.261C302.299 355.695 303.127 353.122 299.929 353.376C298.668 353.476 297.197 353.767 295.939 353.964C294.856 354.135 294.228 354.589 293.304 354.798C292.319 355.022 291.141 354.759 290.12 354.836C288.361 354.969 286.953 355.649 285.287 356.004C281.84 356.741 278.931 357.759 275.574 358.846C274.038 356.583 272.749 353.862 270.663 352.012C268.331 349.943 267.336 349.493 270.624 347.821ZM225.263 8.88906C225.77 8.83765 226.35 8.53327 226.742 7.89876C226.056 9.00928 225.651 9.05954 225.263 8.88906ZM209.413 10.6575C210.028 10.7652 210.634 10.8969 211.143 11.1269C211.644 11.3532 211.914 11.6111 212.181 11.8374C212.057 11.7849 211.921 11.7286 211.769 11.6674C211.109 11.4013 210.263 10.9209 209.413 10.6575ZM198.842 94.8686C198.801 94.8144 198.761 94.7644 198.722 94.7155C198.761 94.7644 198.801 94.8144 198.843 94.8686H198.842ZM198.454 94.4118C198.404 94.3612 198.355 94.3142 198.306 94.2702C198.355 94.3142 198.404 94.3618 198.454 94.4118ZM285.929 12.8697C286.043 12.9014 286.142 12.9151 286.233 12.92C286.109 12.932 286.009 12.914 285.929 12.8697ZM288.649 14.6267C288.318 14.331 288.123 14.0414 288.022 13.7512C288.073 13.7819 288.129 13.8097 288.193 13.8337C288.291 13.7397 288.389 13.6457 288.488 13.5512C288.351 13.796 288.304 14.0321 288.409 14.2442C288.917 15.2672 289.536 13.7119 290.301 14.4813C289.728 14.4136 289.029 14.6267 288.649 14.6267C287.766 15.7951 286.883 16.9641 286 18.1325C287.196 18.708 287.57 17.9975 288.238 19.0462C288.27 19.097 288.299 19.2217 288.324 19.3862C288.047 18.6216 287.323 18.7686 286 18.1325C286.883 16.9641 287.766 15.7951 288.649 14.6267ZM289.881 19.0692C289.92 19.1369 289.962 19.1982 290.007 19.255C289.963 19.1965 289.919 19.1369 289.881 19.0692ZM288.553 23.6674C287.291 23.0154 288.387 22.1946 288.439 21.1929C288.444 21.1038 288.446 21.0284 288.448 20.9464C288.457 21.1885 288.459 21.3869 288.453 21.4842C288.367 22.8996 287.325 23.2936 289.221 23.7226C289.351 23.7521 289.519 23.7674 289.71 23.7745C289.225 23.8084 288.803 23.7964 288.553 23.6674ZM308.131 34.1864C308.052 33.6077 310.859 32.3447 311.221 32.1895C310.778 32.3802 308.056 33.6377 308.131 34.1864ZM311.324 29.0613C311.305 29.0537 311.284 29.0515 311.266 29.0433C311.269 29.0007 311.265 28.9608 311.265 28.9193C311.278 28.9717 311.296 29.0203 311.324 29.0613ZM312.819 33.7355C312.834 33.6727 312.864 33.5049 312.897 33.3049C312.946 33.5519 313.001 33.7836 313.053 33.9858C312.991 33.9071 312.918 33.8246 312.819 33.7355ZM310.638 33.7C310.636 32.719 310.955 32.9284 311.153 32.9579C310.972 33.2207 310.636 33.2699 310.638 33.7ZM307.675 35.8543C307.97 35.7986 308.218 35.9619 308.448 36.1505C307.949 36.0232 307.539 35.8794 307.675 35.8543ZM306.906 75.426C307.03 75.2241 307.298 75.1573 307.601 75.1253C307.22 75.2657 306.926 75.5664 306.857 76.0027C306.781 75.8412 306.763 75.6586 306.906 75.426ZM309.114 69.1539C309.093 69.1479 309.071 69.14 309.051 69.1382C308.433 69.0918 308.164 69.4775 308.098 70.0675C308.139 69.5528 308.318 69.1334 308.779 68.9966C308.755 68.9502 308.734 68.9068 308.712 68.8616C308.829 68.9646 308.966 69.0623 309.114 69.1539ZM308.381 72.3297C308.368 72.2598 308.353 72.1833 308.336 72.1037C308.406 72.3846 308.484 72.6636 308.565 72.9317C308.485 72.716 308.416 72.5099 308.381 72.3297ZM309.071 62.4786C309.036 62.5039 308.995 62.5256 308.953 62.546C308.995 62.5256 309.034 62.5033 309.071 62.4786ZM308.724 62.6334C308.653 62.6515 308.574 62.6672 308.488 62.6774C308.574 62.6672 308.652 62.6521 308.724 62.6334ZM309.359 55.5049C309.367 55.7683 309.368 56.031 309.376 56.2799C309.332 56.0353 309.328 55.7942 309.359 55.5049ZM431.884 407.084C430.196 405.621 424.539 405.523 422.294 405.112C427.153 400.63 430.805 389.299 421.523 387.844C419.468 387.522 418.886 388.285 418.416 386.042C418.128 384.667 418.715 383.4 418.008 382.03C416.328 378.778 409.946 379.141 406.756 378.673C407.518 376.091 409.387 371.478 406.572 369.381C404.351 367.728 399.729 369.935 397.369 370.643C390.993 372.557 384.516 374.741 379.138 378.594C376.728 375.458 374.208 372.362 372.186 368.97C370.258 365.734 369.063 362.156 367.25 358.861C365.433 355.557 363.503 351.662 360.964 348.822C358.815 346.418 355.867 346.18 353.031 345.032C345.837 342.122 339.603 342.289 332.086 343.365C324.572 344.44 318.058 348.678 311.694 352.375C309.196 344.253 303.419 335.429 294.462 332.924C290.443 331.8 286.214 332.885 282.539 334.652C277.985 336.843 274.405 340.567 269.952 342.64C275.029 334.259 281.439 326.376 287.019 318.461C290.08 314.119 293.947 310.244 296.937 305.82C299.984 301.311 302.229 296.298 304.439 291.375C306.307 295.969 306.623 300.802 308.338 305.412C309.913 309.643 310.991 313.985 312.781 318.147C314.651 322.491 316.302 326.777 318.828 330.82C320.27 333.127 323.822 340.311 326.44 335.702C332.267 339.497 337.891 341.788 345.178 341.622C348.514 341.546 352.23 341.445 355.423 340.724C358.667 339.993 361.766 339.008 364.989 338.307C367.539 337.753 369.869 336.251 372.189 335.14C374.857 333.861 377.5 331.562 379.56 329.545C382.111 327.049 384.746 324.645 387.311 322.164C389.848 319.709 389.664 317.204 391.022 314.152C392.439 310.969 393.046 308.156 391.173 304.943C389.799 302.59 387.371 302.914 386.803 300.531C386.263 298.27 386.788 296.139 385.314 294.064C384.196 292.49 380.174 291.438 380.161 289.83C380.149 288.502 381.581 287.327 381.524 285.734C381.473 284.311 380.751 282.023 379.958 280.82C378.468 278.556 376.198 278.479 373.638 279.171C367.454 280.842 361.392 285.139 357.139 289.653C351.308 274.254 346.716 258.518 342.451 242.767C340.566 235.811 339.091 228.762 337.893 221.668C336.707 214.644 334.91 207.569 334.109 200.509C333.628 196.274 332.276 192.312 331.644 188.129C331.122 184.666 330.773 181.176 330.258 177.711C329.12 170.034 327.539 162.474 326.309 154.816C325.629 150.583 324.095 146.88 322.914 142.804C321.902 139.309 321.299 136.32 319.606 133.018C316.378 126.721 313.057 119.006 306.784 115.004C301.206 111.445 295.795 108.47 288.996 107.741C285.008 107.313 281.794 108.217 277.894 108.632C274.441 109 271.484 110.839 268.116 111.502C268.116 108.416 267.804 108.333 270.725 107.235C272.408 106.603 274.049 105.908 275.763 105.359C277.569 104.779 278.937 104.214 280.477 103.149C282.294 101.892 281.148 102.291 283.326 102.725C286.76 103.411 285.748 102.615 288.007 100.966C289.321 100.006 290.663 100.592 292.2 100.783C293.635 100.962 295.996 101.574 297.091 100.328C297.924 99.3811 297.017 97.7558 297.63 96.7265C298.599 95.1012 301.376 95.1754 302.858 94.0834C304.48 92.8896 304.627 91.5433 304.275 89.7071C304.032 88.4362 301.954 85.6122 302.071 84.5191C302.149 83.7905 302.547 83.5772 303.061 83.5175C307.122 83.7152 306.926 83.1252 305.935 79.6553C305.877 80.1693 305.841 80.6062 305.801 80.9829C305.791 80.4441 305.795 79.9409 305.935 79.6553C306.041 79.4401 306.421 79.3015 306.764 79.128C306.674 79.2147 306.579 79.3033 306.467 79.4028C306.641 80.1404 306.691 82.0676 307.426 82.5919C307.951 82.9673 309.794 82.9287 310.166 82.3014C310.944 80.9913 308.269 80.2477 308.165 79.275C311.236 79.0273 310.189 77.584 308.583 76.1106C308.519 75.7062 308.763 75.5146 309.314 75.5363C309.04 75.2603 308.701 75.103 308.362 75.0524C308.601 75.0138 308.809 74.9463 308.919 74.7824C309.015 74.6384 309.021 74.4389 308.986 74.216C309.046 74.3877 309.098 74.5353 309.136 74.6492C311.786 75.6803 310.424 70.2079 309.324 69.275C309.409 67.7564 309.494 66.2383 309.577 64.7203C308.821 65.2012 308.246 65.9509 308.049 66.7337C308.076 66.0112 308.513 65.3977 309.577 64.7203C307.874 63.9972 307.706 63.9092 309.535 63.7549C311.051 65.0879 310.84 63.9815 311.779 63.1674C311.723 63.2156 313.2 61.6668 313.101 61.9037C313.804 60.2289 313.029 56.6957 310.2 57.8462C311.736 59.1725 310.194 59.4166 309.658 60.5568C309.64 60.5947 309.626 60.6351 309.611 60.6749C309.639 60.5387 309.678 60.4067 309.736 60.2856C310.684 58.3216 310.908 59.8294 309.865 57.5955C309.864 57.5943 309.863 57.5924 309.863 57.59C310.138 57.7244 310.569 57.6961 311.254 57.4183C312.108 56.4131 312.366 56.8241 312.824 55.529C313.224 54.3967 313.039 53.6235 312.239 53.2023C312.33 53.2252 312.421 53.2511 312.513 53.2734C312.867 52.402 312.376 51.5722 311.558 51.1714C311.227 51.6927 310.896 52.2146 310.568 52.7365C310.716 52.7829 310.866 52.8245 311.017 52.8684C311.015 52.8684 311.013 52.8684 311.012 52.8678C309.963 52.7509 309.539 52.9323 309.381 53.3988C309.329 53.1896 309.314 52.9835 309.435 52.7967C309.563 52.5973 310.469 52.8932 310.568 52.7365C312.192 50.1693 310.476 48.0317 307.861 46.724C306.868 46.2275 304.911 46.2106 304.56 45.0481C304.313 44.2268 305.546 42.2393 305.783 41.2648C307.608 40.4579 304.239 39.9861 304.217 39.9824C304.116 41.1317 304.181 41.6409 304.869 41.5517C304.176 41.6421 304.116 41.128 304.217 39.9824C305.207 40.1289 308.128 39.8661 309.56 38.9272C311.931 38.9923 313.151 39.3885 314.589 37.4063C313.184 36.844 311.529 37.1468 310.268 36.2833C310.326 36.5429 310.374 36.7785 310.404 36.9959C310.294 36.6746 310.057 36.3981 309.739 36.1357C309.944 36.3062 309.838 36.3609 309.593 36.3532C309.64 36.2926 309.689 36.2226 309.739 36.1357C309.824 35.1739 310.557 35.5658 311.299 35.6259C311.28 35.3165 311.153 35.0564 311.016 34.7985C311.152 35.046 311.279 35.2996 311.299 35.6259C311.77 35.3373 312.241 35.0488 312.711 34.7596C312.968 34.6881 313.121 34.5881 313.181 34.4624C313.181 34.4645 313.182 34.4673 313.183 34.4695C315.431 35.1165 314.747 30.5227 313.712 30.5462C313.434 30.5528 313.234 30.6511 313.086 30.8068C313.118 30.3833 313.193 29.9352 313.373 29.3078C313.478 29.0379 313.583 28.7679 313.689 28.4979C313.121 28.5329 311.287 27.4765 311.254 28.7367C311.219 28.5094 311.126 28.2974 310.965 28.1044C311.129 26.7103 310.278 26.8289 308.959 26.4393C308.47 26.2944 307.929 25.39 307.378 25.7698C306.548 26.3403 307.048 26.8776 307.58 27.2842C307.502 27.7579 307.267 28.1366 306.874 28.4198C306.815 28.3656 306.758 28.3241 306.701 28.2821C307.068 28.0749 307.377 27.7454 307.58 27.2842C305.884 25.9906 305.169 26.8371 303.864 27.8776C304.384 28.2946 304.986 28.5192 305.563 28.5422C305.533 28.6034 305.504 28.6651 305.478 28.7384C304.824 28.6597 304.286 28.3728 303.864 27.8776C305.25 26.7721 305.125 26.0944 303.44 25.4386C302.871 25.2173 302.51 25.7102 301.806 25.4495C301.456 25.32 301.203 24.732 300.862 24.5374C298.312 23.0821 295.249 23.9106 292.533 23.5658C292.873 23.5237 293.178 23.4827 293.409 23.4532C293.139 22.5504 292.411 22.1597 291.644 21.8847C291.645 21.3705 291.646 20.8557 291.645 20.3414C291.536 20.318 291.432 20.307 291.331 20.3043C291.509 20.1688 291.614 19.9846 291.589 19.6709C290.934 19.8993 290.378 19.731 290.019 19.2736C290.733 20.1518 292.122 19.6922 292.546 18.5659C292.99 17.3855 292.038 16.5925 291.209 15.7164C291.229 14.8748 290.858 14.5721 290.378 14.4912C291.243 12.8539 291.437 13.666 290.509 11.6182C290.433 10.2383 289.218 10.7395 288.399 11.6259C288.485 11.4226 288.574 11.2138 288.658 10.9963C288.014 10.9543 287.37 10.9121 286.726 10.869C286.889 11.3729 287.251 12.2702 286.776 12.6982C287.092 12.2604 286.867 11.304 286.726 10.869C285.936 10.4449 285.148 10.0209 284.359 9.59564C284.426 9.73171 284.607 10.2438 284.832 10.8236C284.225 10.0088 283.73 9.50386 282.903 8.665C282.499 8.25564 280.919 6.29101 280.481 6.16855C277.802 5.41985 275.776 10.4711 272.508 9.7798C270.581 9.37212 271.481 8.89123 269.66 9.23225C268.663 7.98349 262.156 9.94703 261.906 11.1351C262.028 11.1034 262.121 11.0903 262.197 11.0882C261.464 11.3417 260.826 11.7319 260.115 11.9958C258.334 12.6583 259.394 12.8309 257.372 11.716C256.682 11.3357 256.428 11.4549 256.159 11.4199C257.029 11.0428 257.449 8.43269 257.461 7.50205C257.493 5.27835 257.188 5.66855 258.088 4.07388C257.256 4.06128 256.669 3.99295 256.233 4.18368C256.358 3.80553 256.447 3.43443 256.445 3.07538C256.895 1.89936 256.498 0.513972 255.105 0.186624C252.998 -0.309037 252.585 2.60762 254.112 3.08527C252.651 2.62835 253.237 0.783408 251.248 0.533619C251.978 0.497582 252.431 0.6304 253.111 1.43593C253.336 0.998727 253.56 0.562061 253.785 0.124854C252.202 -0.0347216 251.471 -0.164225 250.192 0.552782C248.941 0.768101 248.059 1.64191 247.115 2.49499C244.543 4.81818 242.233 7.08557 239.866 9.60606C238.649 7.19652 237.306 5.44227 235.333 8.13873C233.55 10.5723 232.108 13.9359 231.181 16.7657C229.33 15.9465 230.111 15.6793 229.334 14.3524C230.141 15.6448 229.32 15.9422 231.181 16.7657C231.366 16.2012 231.551 15.6361 231.736 15.0715C230.115 13.2905 230.184 11.521 228.429 9.62192C228.234 10.2307 228.794 11.098 228.891 11.6467C229 12.2549 228.301 12.6774 228.46 13.3315C229.116 13.1003 229.268 13.2397 229.289 13.4927C229.266 13.2403 229.111 13.102 228.46 13.3315C228.2 12.2631 228.846 11.6953 228.485 10.5023C228.339 10.0203 228.128 9.66778 227.872 9.32681C228.989 7.52609 225.378 6.27841 224.537 7.35013C224.431 7.48512 224.359 7.61076 224.303 7.73213C222.893 7.12058 222.458 8.42178 221.8 9.39894C221.644 9.70441 221.487 10.0104 221.331 10.3165C220.501 10.9739 219.73 12.3495 219.105 13.2496C217.768 15.1737 217.208 17.9898 215.571 19.5933C215.627 18.5604 216.211 16.2706 214.287 17.1942C214.922 16.8892 215.014 16.5187 214.874 16.0891C214.994 16.1542 215.123 16.2132 215.274 16.2613C215.544 16.287 215.815 16.3121 216.086 16.3372C216.052 14.8748 215.058 13.9135 213.883 13.1358C213.883 13.5178 213.87 13.9108 213.896 14.2873C213.889 14.2737 213.883 14.2606 213.876 14.2469C213.361 13.0561 213.579 12.7052 213.133 12.3402C213.308 12.3806 213.509 12.4096 213.756 12.4211C212.319 10.0782 210.409 9.70387 207.768 10.3641C207.948 10.405 208.136 10.44 208.328 10.4745C208.029 10.475 207.739 10.5263 207.468 10.6537C206.443 11.1351 204.925 13.9026 204.213 14.8622C201.708 18.2396 200.542 22.3777 199.23 26.2813C198.862 27.3798 198.303 29.9543 196.879 30.3227C195.223 30.7511 193.469 28.1509 192.013 27.2819C187.35 24.5008 185.031 29.4942 184.313 33.4557C183.242 35.2084 183.489 36.5593 185.034 37.3894C184.602 36.7866 184.403 36.1445 184.321 35.4821C184.526 36.6079 185.5 36.9981 185.675 37.4802C185.772 37.7446 185.906 39.3491 185.903 39.6716C186.699 40.2446 186.759 40.6682 186.082 40.9424C185.668 41.2148 185.281 41.5198 184.919 41.8566C183.802 42.992 183.813 44.5666 182.79 45.6713C181.635 46.9205 180.574 46.3685 180.029 48.4223C179.094 51.9404 181.396 57.2532 185.539 57.5894C185.048 58.9749 184.411 60.3802 184.044 61.8006C183.556 63.691 183.59 63.8827 184.514 65.6912C177.624 64.7035 178.163 71.7361 182.09 75.1904C183.02 76.0094 184.039 76.5192 185.24 76.882C186.109 77.1447 188.732 76.9983 189.357 77.7931C190.673 79.4685 187.734 81.6469 187.474 83.5163C187.448 83.7079 187.437 84.0364 187.446 84.4178C186.361 85.6984 186.414 85.8039 187.964 87.0013C188.814 88.0565 191.438 87.804 192.236 88.8128C193.463 90.3652 190.726 92.8643 192.098 94.6782C193.189 96.1197 194.328 95.2212 196.074 95.8322C196.92 96.2046 197.765 96.5777 198.609 96.9525C199.005 96.6873 199.438 96.521 199.908 96.4535C200.894 96.9326 199.953 97.7757 201.197 98.0577C201.843 98.2542 203.336 99.0008 203.988 98.6139C203.063 99.1629 202.441 100.52 201.909 102.012C201.404 102.81 200.937 103.688 201.123 104.347C200.811 105.261 200.493 106.094 200.111 106.675C202.262 106.99 202.008 108.944 203.497 110.016C205.508 111.675 205.843 110.135 205.368 109.326C205.568 109.424 205.775 109.552 205.988 109.697C206.029 109.725 205.597 110.711 206.021 110.941C206.614 111.264 206.614 110.94 207.231 110.933C207.813 110.927 208.656 110.086 209.366 110.015C209.744 109.978 210.861 110.476 211.093 110.328C211.736 109.917 211.686 109.465 211.436 108.92L211.724 109.474C212.417 111.219 212.766 110.826 213.816 110.326C213.533 110.461 214.64 109.664 214.868 109.728C214.35 108.345 212.298 108.49 211.034 108.145C211.834 108.363 213.135 108.372 213.872 108.678C215.106 109.19 214.716 109.711 216.176 109.87C216.791 109.937 219.299 109.28 219.741 108.85C219.783 108.809 219.813 108.759 219.835 108.704C220.063 108.354 220.291 108.003 220.517 107.652C221.444 107.756 220.441 109.13 221.895 108.583C222.982 108.174 222.453 107.605 222.107 106.984C221.994 106.781 221.866 106.636 221.733 106.532C223.234 106.878 225.019 108.827 227.069 108.281C228.225 107.973 228.289 107.213 229.137 106.501C230.269 105.551 230.62 105.697 231.992 105.237C232.822 104.959 233.707 104.344 234.543 104.201C235.904 103.968 235.528 104.112 236.656 104.666C237.331 104.996 237.714 105.616 238.566 105.736C239.344 105.846 240.564 104.984 241.194 105.221C242.907 105.866 242.471 108.184 242.568 109.712C233.899 107.051 223.765 111.303 217.384 117.143C215.654 118.726 214.523 120.603 212.985 122.325C211.317 124.193 209.744 125.042 209.509 127.703C209.308 129.998 210.381 131.375 209.533 133.58C208.721 135.693 207.834 137.584 207.239 139.787C204.4 150.308 204.312 161.233 202.208 171.899C200.261 181.768 197.48 190.56 192.899 199.607C190.774 203.8 188.994 206.368 184.335 208.137C180.566 209.567 177.808 207.692 175.965 204.429C171.009 195.649 170.304 186.619 170.364 176.825C170.392 172.121 170.949 167.415 171.419 162.738C171.906 157.89 171.541 153.36 171.191 148.519C170.489 138.814 168.193 130.489 164.737 121.361C163.099 117.032 161.716 112.811 157.77 109.995C155.559 108.418 153.339 106.445 150.748 105.081C148.675 103.989 147.441 103.003 145.077 102.515C143.522 102.194 142.105 101.698 140.604 101.231C137.061 100.133 132.963 99.7927 129.246 99.8047C120.569 99.8331 111.046 102.65 103.235 106.262C99.3457 108.06 95.1226 110.738 92.5607 114.15C91.5038 115.558 90.7838 117.119 90.0657 118.704C89.2063 120.597 89.4763 120.944 87.657 120.878C86.517 120.836 85.242 119.819 83.9363 119.765C82.507 119.706 81.4607 120.186 80.1301 120.542C78.4413 120.993 76.8538 121.398 75.352 122.333C71.7082 124.602 68.6263 128.217 65.8419 131.372C60.7444 137.145 56.1326 143.616 51.3638 149.497C46.6676 155.287 40.9626 160.426 33.6682 163.051C30.8857 164.052 27.8045 164.255 24.9632 165.065C23.7163 165.42 22.2063 166.363 20.9001 166.346C18.8476 166.321 19.0057 165.352 18.2951 163.781C17.4501 161.915 16.2282 160.463 14.7007 159.069C7.9257 152.884 -0.499918 162.048 0.0232074 169.107C0.328832 173.232 3.53508 175.952 3.42196 180C3.31571 183.787 3.55008 187.629 4.95071 191.223C6.52321 195.254 10.3901 199.435 13.8001 202.177C16.9588 204.717 20.9157 205.257 24.8951 205.681C26.7188 205.875 28.6113 206.398 30.3751 206.367C31.8863 206.341 33.2607 205.751 34.8032 205.811C37.4207 205.913 38.8232 205.896 41.2757 205.001C43.0945 204.337 44.7351 203.968 46.7157 204.011C46.7157 208.036 46.9807 211.971 47.3395 215.982C47.3863 216.512 47.7663 217.887 47.5132 218.359C47.202 218.942 46.832 218.557 46.4432 218.977C45.517 219.976 44.8457 220.467 44.152 221.766C42.2488 225.329 41.6663 229.314 42.4082 233.287C42.9895 236.401 44.8888 237.684 44.4401 240.993C43.912 244.881 42.9301 248.849 42.7407 252.762C42.6495 254.628 42.627 256.038 42.217 257.849C41.9807 258.9 41.1838 260.793 41.2482 261.855C41.2882 262.511 42.0101 262.802 42.0113 263.403C42.0126 263.928 41.3845 263.858 41.3413 264.307C41.2095 265.663 41.1332 266.89 41.1632 268.253C41.2026 270.096 41.0157 271.928 41.0876 273.771C41.142 275.176 40.8032 278.499 42.4376 277.951C42.0013 278.943 41.8857 279.899 41.8426 280.851C41.8201 280.759 41.8107 280.664 41.8195 280.568C41.9188 279.469 41.9526 279.054 42.4376 277.951L41.5045 278.264C40.9345 279.683 41.6345 281.074 41.7913 282.486C41.7863 282.627 41.7813 282.768 41.772 282.911C41.6407 284.962 41.8013 286.971 41.9601 289.017C42.3226 293.691 42.4938 298.9 43.8045 303.099C45.2413 307.702 44.782 313.488 45.3357 318.558C45.9701 324.36 46.9982 330.068 47.7638 335.849C48.4476 341.01 48.7776 346.611 49.9507 351.638C50.9132 355.754 51.727 359.764 52.2432 364.09C52.9576 370.091 55.2282 374.662 57.7282 380.114C58.7851 382.421 58.8576 382.384 56.9176 384.07C56.1045 384.776 55.4151 385.602 54.587 386.291C52.9288 387.674 51.1176 388.478 48.9401 388.727C43.5795 389.34 38.1638 391.177 35.1526 395.633C32.242 399.94 34.1282 404.988 36.3063 409.376C33.4313 409.612 25.6576 409.442 27.4763 414.491C28.7195 417.944 35.3482 416.787 38.2763 416.825C42.5551 416.88 46.8632 416.678 51.1045 416.621C53.0351 416.596 53.232 416.403 55.112 417.113C56.8838 417.781 58.2357 417.855 60.1532 417.733C62.1945 417.604 64.2345 417.894 66.2126 417.61C68.7063 417.254 70.2576 416.954 72.7632 417.381C74.5738 417.69 76.0251 417.538 77.832 417.309C79.8351 417.052 81.7313 417.207 83.7976 417.153C88.6238 417.028 93.4132 417.116 98.2432 417.168C102.938 417.218 107.636 416.6 112.298 416.803C120.428 417.157 128.704 416.834 136.872 417.017C140.639 417.102 143.549 419.216 147.326 418.999C151.164 418.778 155.055 418.744 158.863 418.227C165.421 417.336 171.739 416.076 178.402 415.748C182.613 415.54 186.314 417.288 190.276 418.386C191.711 418.783 193.003 418.597 194.344 418.892C195.611 419.17 196.91 419.968 198.247 420.298C201.414 421.081 204.44 421.379 207.223 421.451C207.583 422.093 207.998 422.172 208.469 421.687C208.661 421.582 208.852 421.477 209.044 421.373C209.931 421.259 210.564 420.873 211.495 420.816C212.93 420.728 214.399 420.916 215.731 420.793C218.52 420.534 221.138 420.364 224.222 420.669C226.051 420.851 227.652 420.595 229.453 420.627C229.432 420.626 231.923 421.095 231.979 421.074C232.2 420.991 232.549 420.398 232.692 420.372C232.641 419.804 232.818 419.548 233.224 419.603C233.551 419.535 233.766 419.699 233.87 420.096C233.773 420.108 234.646 420.533 234.708 420.543C234.759 420.55 237.009 420.293 237.167 420.236C237.813 420.003 238.088 419.325 238.602 419.224C239.212 419.104 239.576 419.752 240.104 419.725C241.269 419.664 241.132 419.164 242.028 419.008C245.172 418.461 249.021 419.172 252.269 419.177C255.506 419.182 258.724 418.896 261.841 418.764C265.672 418.602 269.425 419.303 273.286 418.805C276.958 418.331 280.631 418.125 284.329 417.975C292.061 417.661 299.994 417.993 307.653 417.116C315.629 416.204 323.737 417.116 331.724 416.979C340.146 416.834 348.614 416.76 357.033 416.427C365.412 416.096 373.757 415.134 382.103 414.941C384.227 414.892 386.312 414.404 388.427 414.256C390.364 414.12 392.268 414.417 394.221 414.253C397.776 413.952 401.011 414.182 404.584 414.13C408.58 414.071 412.463 413.483 416.438 413.247C420.456 413.008 424.436 413.555 428.421 412.791C430.599 412.372 434.664 409.495 431.884 407.084Z" fill="black"/>
<path fill-rule="evenodd" clip-rule="evenodd" d="M274.101 64.3063C274.095 64.3063 274.09 64.3069 274.085 64.3063C274.065 64.3286 274.044 64.3527 274.025 64.3738L274.101 64.3063Z" fill="black"/>
<path fill-rule="evenodd" clip-rule="evenodd" d="M307.386 46.5625C307.891 44.8704 306.612 43.6585 305.756 42.3441C305.251 45.3259 303.703 45.197 307.386 46.5625Z" fill="black"/>
<path fill-rule="evenodd" clip-rule="evenodd" d="M214.664 110.09C214.678 110.124 214.694 110.154 214.705 110.191C214.719 110.131 214.703 110.099 214.664 110.09Z" fill="black"/>
<path fill-rule="evenodd" clip-rule="evenodd" d="M200.712 107.856C200.827 108.105 201.078 109.829 201.26 109.837C202.879 109.911 200.906 106.996 199.871 106.825C198.374 107.757 200.748 107.933 200.712 107.856Z" fill="black"/>
<path fill-rule="evenodd" clip-rule="evenodd" d="M200.625 97.7859C200.518 96.4692 200.059 96.3023 198.75 96.9423C199.141 97.7703 199.607 97.6515 200.625 97.7859Z" fill="black"/>
<path fill-rule="evenodd" clip-rule="evenodd" d="M182.5 65.5459C183.125 65.6466 183.751 65.7466 184.375 65.8466C184.008 65.0439 183.641 64.2394 183.274 63.4361C183.016 64.14 182.758 64.8427 182.5 65.5459Z" fill="black"/>
<path fill-rule="evenodd" clip-rule="evenodd" d="M195.329 330.096C195.33 330.094 195.33 330.093 195.331 330.092C195.286 330.109 195.279 330.112 195.329 330.096Z" fill="black"/>
<path fill-rule="evenodd" clip-rule="evenodd" d="M67.82 165.972C69.1438 163.838 71.6538 161.202 74.5113 162.089C77.1807 162.918 77.9194 166.292 79.07 168.415C81.3076 172.541 82.0044 168.11 82.5001 165.606C82.0957 160.59 80.0719 152.426 73.2257 153.291C68.0182 153.95 63.5213 162.016 64.5132 166.785C65.3463 170.794 66.7525 167.694 67.82 165.972Z" fill="black"/>
<path fill-rule="evenodd" clip-rule="evenodd" d="M265.167 71.4433C262.61 70.5634 262.613 73.227 262.514 75.2296C262.423 77.0694 262.719 81.3854 265.128 82.0423C267.527 82.6979 267.753 78.8863 268.125 77.3454C267.566 75.5164 267.256 72.1622 265.167 71.4433Z" fill="black"/>
<path fill-rule="evenodd" clip-rule="evenodd" d="M268.125 67.446C266.248 65.8467 264.995 65.3567 262.598 66.3896C261.364 66.9211 259.602 68.0776 259.409 69.5359C258.806 74.0749 266.471 68.3771 268.125 67.446Z" fill="black"/>
<path fill-rule="evenodd" clip-rule="evenodd" d="M265.926 89.6213C261.552 88.5318 264.256 93.6699 269.12 93.6796C271.035 93.6831 274.741 92.6582 273.426 91.5497C272.506 90.7748 266.931 89.8718 265.926 89.6213Z" fill="black"/>
<path fill-rule="evenodd" clip-rule="evenodd" d="M235.083 76.7175C233.45 76.9471 232.873 77.9348 233.223 79.5113C233.628 81.33 234.65 81.345 236.481 81.515C240.893 81.5282 238.013 76.3047 235.083 76.7175Z" fill="black"/>
<path fill-rule="evenodd" clip-rule="evenodd" d="M273.809 66.9561C274.213 68.036 276.406 68.5235 277.552 68.1119C278.915 67.622 279.198 66.4318 277.968 65.3386C276.915 64.4027 275.462 64.6498 274.143 64.7366C274.187 65.1452 273.558 66.2848 273.809 66.9561Z" fill="black"/>
<path fill-rule="evenodd" clip-rule="evenodd" d="M136.601 189.988C138.686 189.985 136.718 186.584 135 186.372C135.036 187.424 134.964 189.991 136.601 189.988Z" fill="black"/>
</svg>
