<svg width="781" height="900" viewBox="0 0 781 900" fill="none" xmlns="http://www.w3.org/2000/svg">
<path fill-rule="evenodd" clip-rule="evenodd" d="M390.441 0L0 900C0 900 172.059 869.799 271.324 779.195C342.751 713.999 390.441 567.785 390.441 567.785C390.441 567.785 438.131 713.999 509.559 779.195C608.824 869.799 780.882 900 780.882 900L390.441 0ZM390.441 226.51C390.441 226.51 408.353 296.354 430.147 337.457C447.883 370.907 479.779 380.537 479.779 380.537C479.779 380.537 447.778 400.968 430.147 427.207C399.224 473.226 390.441 567.785 390.441 567.785C390.441 567.785 381.658 473.226 350.735 427.207C333.104 400.968 301.103 380.537 301.103 380.537C301.103 380.537 332.999 370.907 350.735 337.457C372.53 296.354 390.441 226.51 390.441 226.51Z" fill="#4741A6"/>
</svg>
