<svg width="45" height="45" viewBox="0 0 45 45" fill="none" xmlns="http://www.w3.org/2000/svg">
<rect width="45" height="45" rx="22.5" fill="url(#paint0_linear_47_298)"/>
<path d="M22.5012 18.75C20.4295 18.75 18.7512 20.4289 18.7512 22.5C18.7512 24.5716 20.4301 26.25 22.5012 26.25C24.5729 26.25 26.2512 24.5711 26.2512 22.5C26.2512 20.4284 24.5724 18.75 22.5012 18.75ZM22.5012 16.25C25.9517 16.25 28.7512 19.0464 28.7512 22.5C28.7512 25.9506 25.9549 28.75 22.5012 28.75C19.0506 28.75 16.2512 25.9536 16.2512 22.5C16.2512 19.0494 19.0476 16.25 22.5012 16.25ZM30.6262 15.9364C30.6262 16.7991 29.9252 17.499 29.0637 17.499C28.2011 17.499 27.5012 16.798 27.5012 15.9364C27.5012 15.0749 28.2021 14.375 29.0637 14.375C29.9241 14.3739 30.6262 15.0749 30.6262 15.9364ZM22.5012 12.5C19.4081 12.5 18.904 12.5082 17.4653 12.5722C16.4852 12.6183 15.8282 12.7501 15.2177 12.9871C14.6752 13.1975 14.2839 13.4487 13.8669 13.8657C13.4483 14.2842 13.1975 14.6745 12.988 15.2173C12.7504 15.8292 12.6187 16.4851 12.5735 17.4639C12.5088 18.844 12.5012 19.3263 12.5012 22.5C12.5012 25.5931 12.5094 26.0972 12.5735 27.5358C12.6195 28.5155 12.7515 29.1735 12.9879 29.7825C13.1989 30.3258 13.4506 30.718 13.8656 31.133C14.2858 31.5526 14.6772 31.8042 15.2148 32.0117C15.8327 32.2506 16.4893 32.3826 17.4651 32.4277C18.8452 32.4924 19.3275 32.5 22.5012 32.5C25.5944 32.5 26.0985 32.4917 27.537 32.4277C28.5146 32.3819 29.1731 32.2495 29.7837 32.0132C30.3255 31.8029 30.719 31.5503 31.1342 31.1356C31.5545 30.7148 31.8056 30.3243 32.0134 29.7854C32.2516 29.1698 32.3839 28.5123 32.429 27.5361C32.4936 26.156 32.5012 25.6736 32.5012 22.5C32.5012 19.4069 32.493 18.9028 32.429 17.4642C32.383 16.4863 32.2506 15.8269 32.0141 15.2165C31.8042 14.6755 31.5521 14.2829 31.1355 13.8657C30.7162 13.4464 30.327 13.1962 29.7839 12.9868C29.1725 12.7494 28.5155 12.6174 27.5372 12.5723C26.1572 12.5076 25.6749 12.5 22.5012 12.5ZM22.5012 10C25.897 10 26.321 10.0125 27.6544 10.075C28.9845 10.1365 29.8919 10.3469 30.6887 10.6563C31.5126 10.974 32.2085 11.4031 32.9032 12.0979C33.597 12.7927 34.0262 13.4906 34.345 14.3125C34.6532 15.1083 34.8637 16.0167 34.9262 17.3469C34.9856 18.6802 35.0012 19.1042 35.0012 22.5C35.0012 25.8959 34.9887 26.3197 34.9262 27.6531C34.8647 28.9834 34.6532 29.8906 34.345 30.6875C34.0272 31.5115 33.597 32.2072 32.9032 32.9021C32.2085 33.5959 31.5095 34.025 30.6887 34.3438C29.8919 34.6521 28.9845 34.8625 27.6544 34.925C26.321 34.9844 25.897 35 22.5012 35C19.1054 35 18.6814 34.9875 17.3481 34.925C16.0179 34.8635 15.1116 34.6521 14.3137 34.3438C13.4908 34.026 12.7939 33.5959 12.0991 32.9021C11.4043 32.2072 10.9762 31.5084 10.6575 30.6875C10.3481 29.8906 10.1387 28.9834 10.0762 27.6531C10.0168 26.3197 10.0012 25.8959 10.0012 22.5C10.0012 19.1042 10.0137 18.6802 10.0762 17.3469C10.1377 16.0156 10.3481 15.1094 10.6575 14.3125C10.9752 13.4896 11.4043 12.7927 12.0991 12.0979C12.7939 11.4031 13.4918 10.975 14.3137 10.6563C15.1106 10.3469 16.0168 10.1375 17.3481 10.075C18.6814 10.0156 19.1054 10 22.5012 10Z" fill="white"/>
<defs>
<linearGradient id="paint0_linear_47_298" x1="37.5" y1="6.875" x2="5" y2="38.125" gradientUnits="userSpaceOnUse">
<stop stop-color="#FF0091"/>
<stop offset="1" stop-color="#FBC900"/>
</linearGradient>
</defs>
</svg>
