<svg width="45" height="45" viewBox="0 0 45 45" fill="none" xmlns="http://www.w3.org/2000/svg">
<rect width="45" height="45" rx="22.5" fill="#5B4BD3"/>
<path d="M30.4202 30.4238H27.0884V25.2028C27.0884 23.9578 27.0631 22.3556 25.3521 22.3556C23.615 22.3556 23.3496 23.7104 23.3496 25.1109V30.4238H20.0177V19.6875H23.2184V21.1509H23.2615C23.7087 20.3071 24.7962 19.4166 26.4209 19.4166C29.7969 19.4166 30.4212 21.6385 30.4212 24.5306L30.4202 30.4238ZM16.2547 18.2184C15.1822 18.2184 14.3206 17.3503 14.3206 16.2825C14.3206 15.2156 15.1831 14.3484 16.2547 14.3484C17.3234 14.3484 18.1897 15.2156 18.1897 16.2825C18.1897 17.3503 17.3225 18.2184 16.2547 18.2184ZM17.9253 30.4238H14.584V19.6875H17.9253V30.4238ZM32.0871 11.25H12.9115C11.9937 11.25 11.2512 11.9756 11.2512 12.8709V32.1291C11.2512 33.0253 11.9937 33.75 12.9115 33.75H32.0844C33.0012 33.75 33.7512 33.0253 33.7512 32.1291V12.8709C33.7512 11.9756 33.0012 11.25 32.0844 11.25H32.0871Z" fill="white"/>
</svg>
