<svg width="51" height="51" viewBox="0 0 51 51" fill="none" xmlns="http://www.w3.org/2000/svg">
<rect width="51" height="51" rx="25.5" fill="#4741A6"/>
<path fill-rule="evenodd" clip-rule="evenodd" d="M25.5 12L13.7868 39C13.7868 39 18.9485 38.094 21.9265 35.3758C24.0693 33.42 25.5 29.0336 25.5 29.0336C25.5 29.0336 26.9307 33.42 29.0735 35.3758C32.0515 38.094 37.2132 39 37.2132 39L25.5 12ZM25.5 18.7953C25.5 18.7953 26.0374 20.8906 26.6912 22.1237C27.2233 23.1272 28.1802 23.4161 28.1802 23.4161C28.1802 23.4161 27.2201 24.0291 26.6912 24.8162C25.7635 26.1968 25.5 29.0336 25.5 29.0336C25.5 29.0336 25.2365 26.1968 24.3088 24.8162C23.7799 24.0291 22.8199 23.4161 22.8199 23.4161C22.8199 23.4161 23.7767 23.1272 24.3088 22.1237C24.9627 20.8906 25.5 18.7953 25.5 18.7953Z" fill="#FECF2C"/>
</svg>
