<svg width="61" height="60" viewBox="0 0 61 60" fill="none" xmlns="http://www.w3.org/2000/svg">
<path d="M47.9762 47.5H48M47.9762 47.5C46.4195 49.0438 43.5983 48.6592 41.6198 48.6592C39.1913 48.6592 38.0218 49.1343 36.2885 50.8675C34.8128 52.3435 32.8343 55 30.5 55C28.1657 55 26.1873 52.3435 24.7114 50.8675C22.9782 49.1343 21.8087 48.6592 19.3802 48.6592C17.4017 48.6592 14.5805 49.0438 13.0237 47.5C11.4545 45.944 11.8407 43.111 11.8407 41.1198C11.8407 38.6035 11.2904 37.4465 9.49845 35.6545C6.83285 32.989 5.50005 31.656 5.5 30C5.50002 28.3437 6.8328 27.011 9.49837 24.3454C11.098 22.7458 11.8407 21.1607 11.8407 18.8802C11.8407 16.9016 11.4562 14.0803 13 12.5236C14.5561 10.9544 17.389 11.3407 19.3802 11.3407C21.6607 11.3407 23.2458 10.598 24.8454 8.99843C27.511 6.3328 28.8437 5 30.5 5C32.1563 5 33.489 6.3328 36.1545 8.99843C37.7537 10.5977 39.3388 11.3407 41.6198 11.3407C43.5983 11.3407 46.4198 10.9562 47.9765 12.5C49.5455 14.0561 49.1592 16.889 49.1592 18.8802C49.1592 21.3965 49.7098 22.5534 51.5015 24.3454C54.1673 27.011 55.5 28.3437 55.5 30C55.5 31.656 54.1673 32.989 51.5015 35.6545C49.7095 37.4465 49.1592 38.6035 49.1592 41.1198C49.1592 43.111 49.5455 45.944 47.9762 47.5Z" stroke="#FECF2C" stroke-width="4.21875"/>
<path d="M23 32.2323L27.5 36.25L38 23.75" stroke="#FECF2C" stroke-width="4.21875" stroke-linecap="round" stroke-linejoin="round"/>
</svg>
