<svg width="418" height="485" viewBox="0 0 418 485" fill="none" xmlns="http://www.w3.org/2000/svg">
<path fill-rule="evenodd" clip-rule="evenodd" d="M110.507 109.627C110.011 117.736 109.515 125.843 109.019 133.951C112.21 133.032 132.511 127.059 131.257 133.115C130.357 137.459 124.65 142.158 121.742 145.182C119.066 147.967 116.31 150.679 113.484 153.311C118.678 151.323 123.915 149.44 129.19 147.678C133.182 146.345 137.203 145.044 141.293 144.045C142.811 143.674 146.91 142.16 148.345 143.192C152.113 145.905 131.664 165.883 128.863 168.699C132.824 166.857 136.88 165.183 141.005 163.748C143.983 162.711 153.184 158.749 155.82 162.132C158.641 165.752 151.652 174.064 149.714 176.699C146.937 180.476 143.928 184.098 140.77 187.562C153.894 199.35 169.316 209.842 185.729 216.362C197.763 221.144 209.585 222.361 222.283 219.737C235.329 217.042 247.84 211.872 259.734 205.96C266.719 202.488 273.611 198.732 280.178 194.511C277.471 191.219 274.843 187.857 272.289 184.444C268.644 179.571 264.165 174.247 262.087 168.447C260.053 162.77 267.683 163.878 271.343 164.186C276.643 164.633 281.929 165.58 287.123 166.713C283.451 164.159 279.845 161.502 276.311 158.76C271.706 155.185 265.563 151.143 262.548 146.001C259.898 141.479 265.715 142.621 268.405 143.213C274.819 144.626 281.06 147.034 287.177 149.382C291.657 151.102 296.11 152.903 300.519 154.8C297.782 152.421 295.137 149.928 292.595 147.343C289.177 143.869 284.57 139.625 283.037 134.841C279.918 125.097 300.905 132.447 304.488 133.951C303.825 123.858 303.164 113.765 302.503 103.671C274.714 111.065 246.925 118.461 219.135 125.855C216.132 126.655 212.374 128.395 209.242 128.488C206.405 128.573 202.979 127.295 200.213 126.767L149.925 117.159C136.786 114.648 123.647 112.138 110.507 109.627Z" fill="#4741A6"/>
<path fill-rule="evenodd" clip-rule="evenodd" d="M409.18 456.791C406.18 458.507 402.666 459.833 399.333 460.722C397.375 461.245 394.141 462.859 392.421 461.38C391.596 460.669 391.407 459.057 390.919 458.123C390.149 456.643 389.052 455.365 388.026 454.057C385.538 450.888 382.949 447.83 380.24 444.848C378.956 443.436 376.611 440.137 374.349 440.354C371.529 440.625 371.597 444.527 372.303 446.521C374.553 452.869 381.363 458.403 385.812 463.185C384.68 464.925 378.469 464.718 376.744 464.311C374.11 463.689 373.844 461.814 372.642 459.669C369.831 454.656 364.128 451.852 359.44 448.905C357.731 447.829 354.099 444.851 351.871 445.601C349.76 446.311 349.852 449.007 350.524 450.768C351.539 453.429 354.428 455.275 356.565 456.957C359.414 459.199 362.019 461.638 364.393 464.383C360.971 464.663 357.562 465.145 354.149 465.426C350.021 465.766 346.58 463.501 342.78 462.217C339.249 461.024 335.73 460.016 332.258 458.641C328.36 457.097 324.276 456.56 320.344 455.205C304.911 449.89 289.789 443.205 274.918 436.466C267.832 433.255 260.891 430.042 253.507 427.529C248.126 425.697 239.67 422.047 238.383 415.637C237.704 412.25 240.178 408.608 240.543 405.225C240.971 401.243 240.634 396.864 239.422 393.044C238.352 389.68 236.581 386.564 235.186 383.333C233.559 379.568 235.015 379.629 238.174 379.201C241.956 378.689 246.369 376.56 249.923 375.174C254.017 373.576 258.076 371.343 261.826 369.048C265.218 366.972 268.169 364.296 270.869 361.39C273.616 358.434 275.394 354.931 278.05 351.902C287.851 363.956 297.167 376.193 307.581 387.726C312.496 393.169 317.841 397.67 323.899 401.809C326.428 403.538 328.937 405.512 331.693 406.879C335.139 408.589 338.991 409.65 342.533 411.211C356.113 417.195 369.074 423.736 381.743 431.457C387.872 435.191 393.016 439.473 398.412 444.158C400.093 445.617 413.853 454.117 409.18 456.791ZM249.875 358.044C247.681 359.038 245.589 360.329 243.248 360.968C243.911 356.929 247.68 350.837 252.512 351.507C254.358 351.763 255.751 353.196 254.94 355.173C254.202 356.969 251.439 357.337 249.875 358.044ZM97.1192 248.502C94.6315 249.875 92.3133 250.676 90.8543 247.727C91.935 247.51 96.8436 246.856 97.1192 248.502ZM92.9771 240.167C91.054 239.584 92.5918 238.971 93.2534 238.267C93.7688 237.72 95.4753 235.799 96.0722 235.482C98.7097 234.085 100.748 239.283 102.009 240.97C99.024 240.705 95.8831 241.048 92.9771 240.167ZM113.534 258.165C109.89 258.783 110.294 254.224 110.403 251.914C111.172 252.852 116.376 257.684 113.534 258.165ZM125.611 250.29C121.168 251.04 118.233 243.364 119.029 240.006C119.73 237.048 123.173 235.397 125.914 234.961C128.571 234.537 132.27 235.115 133.059 238.179C133.756 240.887 128.572 249.79 125.611 250.29ZM230.78 366.167C227.587 367.148 224.459 367.272 221.25 368.235C217.609 369.328 214.239 369.231 210.59 369.975C209.106 370.276 205.102 372.439 203.655 371.956C202.22 371.478 200.145 367.027 199.32 365.87C205.775 363.187 211.282 359.723 215.537 354.069C218.919 349.573 222.548 342.838 220.419 337.035C218.019 330.493 209.744 329.073 204.228 331.805C201.618 333.097 199.031 334.704 196.879 336.673C194.418 338.925 193.451 341.382 191.857 344.159C190.245 346.968 189.114 345.406 187.503 343.021C186.127 340.982 186.306 338.923 184.587 336.912C183.709 335.886 182.35 334.896 181.892 333.571C181.602 332.73 182.213 331.24 181.663 330.579C180.889 329.649 179.947 330.741 179.298 329.911C178.827 329.308 178.98 327.934 178.494 327.18C178.071 326.751 177.602 326.385 177.083 326.081C176.453 325.77 176.338 325.381 176.738 324.913C176.237 323.986 176.719 323.673 175.647 322.544C173.975 320.786 172.451 319.102 171.26 317.026C170.717 316.076 170.77 314.668 170.094 313.846C169.167 312.717 167.622 312.886 166.825 311.489C166.115 310.244 166.59 308.066 165.419 306.936C164.801 306.76 164.183 306.587 163.565 306.416C163.1 305.964 162.829 305.416 162.752 304.771C162.101 303.769 161.972 302.593 161.151 301.535C159.578 299.511 157.464 297.642 156.076 295.508C154.616 293.265 155.39 292.888 157.925 292.085C160.212 291.361 162.3 290.688 164.42 289.455C174.22 283.751 183.51 268.624 167.956 264.003C162.184 262.287 157.442 257.675 151.041 259.488C148.267 260.274 145.635 261.947 143.565 263.933C142.135 265.306 140.81 268.977 139.054 269.68C135.897 270.945 137.232 267.786 136.336 266.335C135.908 265.642 134.186 264.844 133.547 264.214C132.799 263.475 132.074 262.542 131.554 261.627C130.589 259.931 129.998 258.985 128.606 257.603C128.081 257.082 125.461 254.387 127.824 254.739C126.867 251.822 128.263 251.384 130.194 249.252C132.461 246.75 134.802 243.272 134.815 239.766C134.841 233.033 126.863 230.017 121.853 234.013C120.833 234.826 114.803 242.676 116.037 237.67C116.703 234.97 122.862 227.922 125.717 229.746C122.517 225.082 115.166 236.406 113.451 238.723C111.99 236.033 111.886 233.929 109.469 231.847C107.501 235.003 108.54 231.553 108.106 230.852C107.169 229.338 107.684 231.07 107.175 230.532C106.542 229.862 105.546 229.334 104.873 228.446C103.719 230.011 104.18 228.327 103.826 227.743C103 226.376 103.319 225.584 101.903 224.395C100.872 223.53 98.8418 222.188 97.4546 222.065C95.855 221.923 95.412 222.537 93.7821 222.083C91.7086 221.506 89.0993 220.621 90.1027 224.088C90.8318 226.609 93.7948 228.041 94.4438 230.616C95.097 233.208 92.5341 235.82 91.291 237.945C89.6942 240.671 88.3885 240.448 85.4958 241.062C83.6473 241.456 81.18 242.296 82.7656 244.539C83.8976 246.141 86.5512 245.804 88.0453 246.753C90.1407 248.083 90.1118 251.364 92.7872 251.935C95.7333 252.563 97.4208 249.283 99.905 248.491C101.671 247.928 107.143 247.99 108.533 249.316C110.427 251.124 108.79 254.577 109.267 256.821C109.977 260.15 112.229 260.353 115.077 260.46C118.583 260.59 119.816 263.958 121.702 266.628C126.119 272.884 129.958 279.552 134.483 285.724C136.486 288.457 139.416 290.888 141.055 293.854C143.08 297.517 140.269 299.63 137.843 302.259C134.672 305.694 132.306 309.604 129.556 313.358C127.112 316.696 124.076 315.865 120.171 315.865C121.041 314.071 122.088 312.953 124.229 313.17C121.99 310.437 120.2 313.563 118.748 315.295C116.647 317.8 113.908 318.404 111.21 320.052C110.255 320.634 105.055 324.411 106.635 325.7C106.815 325.847 115.422 320.184 116.402 319.665C116.402 321.755 115.945 323.927 116.239 326.006C116.453 327.53 117.525 329.12 117.296 330.705C116.864 333.696 112.997 336.053 111.338 338.383C110.088 340.138 110.39 341.522 109.754 343.405C109.174 345.123 109.479 344.603 108.034 345.134C105.092 346.215 100.14 345.631 97.4757 344.095C95.8219 343.141 94.5542 341.634 93.2105 340.306C92.1987 339.304 89.6534 337.593 89.3722 336.192C88.8898 333.779 93.6802 329.296 94.628 326.806C97.3055 319.782 92.7141 314.322 85.5689 313.924C87.7711 312.225 90.5007 313.505 92.8217 314.153C88.8539 308.655 82.0765 313.179 78.7107 316.916C76.4107 311.102 75.3019 304.97 73.8971 298.906C72.9401 294.778 69.2972 287.41 70.9221 283.16C71.7075 281.105 73.9252 279.959 75.4587 278.534C77.2018 276.916 78.6945 274.98 79.9685 272.975C82.9702 268.254 84.7041 262.295 80.5704 257.642C81.8262 257.435 83.0827 257.229 84.3385 257.023C82.2959 255.103 79.0728 256.038 76.422 255.469C74.7401 255.108 69.8998 255.342 68.7769 254.39C67.4262 253.246 68.2918 247.979 68.3403 246.42C68.4514 242.777 68.7558 239.275 69.158 235.655C69.5391 232.235 69.4625 228.539 70.1691 225.179C70.7429 222.452 72.5766 221.621 74.6923 220.014C79.7492 216.172 83.8702 211.498 82.1433 204.876C82.755 204.779 83.3668 204.682 83.9785 204.585C81.9999 203.154 79.4398 203.674 77.239 202.918C79.2598 197.23 83.7296 187.23 90.9872 186.691C91.2368 189.234 91.066 192.259 92.7816 194.364C94.7349 196.76 98.1633 197.002 100.809 195.734C103.21 194.582 105.464 192.143 106.571 189.732C107.319 188.1 107.184 185.341 108.499 184.047C110.261 182.313 122.411 183.36 122.039 186.288C121.82 188.009 118.571 190.902 117.663 192.428C116.001 195.22 114.671 198.24 114.06 201.447C113.134 206.317 113.671 212.746 118.616 215.306C124.24 218.218 131.094 214.515 135.707 211.316C138.239 209.56 140.693 207.621 143.006 205.585C144.238 204.502 145.477 203.386 146.563 202.154C147.365 201.244 148.006 199.778 148.993 199.096C151.325 197.488 153.611 200.217 155.585 201.596C158.799 203.843 161.998 205.975 165.449 207.845C172.451 211.637 178.853 216.662 185.044 221.651C191.27 226.669 197.691 231.831 202.736 238.083C199.681 239.962 200.225 240.451 198.866 243.803C197.902 246.182 196.573 248.207 196.419 250.851C196.154 255.413 199.083 259.3 203.528 260.31C206.014 260.875 208.382 260.422 210.685 259.406C212.475 258.616 214.259 256.672 216.129 256.189C219.606 255.292 222.387 261.86 224.336 264.173C232.99 274.446 242.137 284.314 250.287 295.006C251.189 296.191 253.87 298.504 254.088 300.072C254.401 302.324 250.858 304.47 249.389 305.761C248.617 306.438 240.436 314.135 243.183 315.358C243.966 315.706 246.258 310.985 246.831 310.58C248.977 309.069 247.355 312.032 247.227 313.531C246.907 317.254 249.465 319.283 253.06 318.811C256.897 318.308 260.312 315.279 262.686 312.418C265.661 315.864 270.312 321.073 271.172 325.677C271.722 328.618 269.177 335.816 273.928 336.415C274.653 336.507 277.277 334.56 277.766 335.665C278.174 336.588 275.337 338.165 274.928 338.47C273.18 339.775 272.124 341.173 270.713 342.753C269.056 344.609 266.792 346.171 264.928 347.949C262.965 349.822 259.08 354.908 256.489 352.451C255.187 351.216 255.529 349.602 253.443 348.877C251.543 348.217 249.136 349.053 247.371 349.785C245.384 350.609 238.838 353.616 238.112 356.092C237.11 359.505 242.521 355.401 243.482 354.801C242.385 357.586 241.779 361.617 238.985 363.242C236.664 364.591 233.326 365.385 230.78 366.167ZM193.677 345.106C195.534 339.136 206.489 328.49 213.413 331.82C205.343 333.511 198.94 339.033 193.677 345.106ZM197.773 362.204C195.073 360.699 195.218 356.329 194.276 353.771C193.735 352.305 192.653 351.232 192.971 349.605C193.343 347.696 195.778 345.574 197.074 344.197C201.152 339.864 208.33 333.943 214.894 334.936C223.249 336.201 217.585 347.419 214.74 351.282C212.315 354.574 202.971 365.101 197.773 362.204ZM178.281 354.902C169.245 354.299 160.24 353.491 151.327 351.832C148.167 351.244 145.52 351.331 147.328 347.698C147.925 346.499 151.524 338.984 152.337 339.199C152.819 339.327 152.709 344.492 152.85 345.084C153.489 347.743 155.28 350.221 158.301 350.052C163.243 349.777 166.428 343.387 169.031 339.957C171.115 342.76 172.624 345.873 174.72 348.629C175.722 349.947 179.208 353.012 178.281 354.902ZM125.306 319.432C123.79 322.911 120.741 326.22 118.621 329.371C117.422 326.834 116.579 321.008 119.422 319.131C120.499 318.422 126.264 317.233 125.306 319.432ZM156.645 329.791C157.062 328.452 157.524 327.124 158.039 325.819C158.923 328.602 159.375 328.685 156.645 329.791ZM164.379 332.641C165.476 334.5 167.304 336.328 167.018 338.663C166.8 340.432 165.201 342.245 164.059 343.478C162.169 345.517 157.983 349.431 155.245 346.723C152.958 344.461 153.754 338.241 154.818 335.696C156.337 332.06 161.765 328.213 164.379 332.641ZM159.013 328.831C159.642 328.581 158.321 324.524 159.547 324.12C160.616 326.558 161.623 327.217 159.013 328.831ZM141.747 274.225C141.34 272.728 140.406 272.79 140.742 270.94C140.963 269.726 141.927 268.43 142.657 267.469C144.113 265.552 146.034 263.972 148.111 262.776C152.497 260.252 158.518 259.204 162.444 263.155C158.774 263.735 147.522 267.358 147.45 272.378C151.532 271.592 154.742 267.492 158.835 266.2C162.196 265.14 165.839 265.214 169.182 266.334C178.332 269.398 174.527 277.307 169.362 282.443C166.297 285.494 162.621 287.77 158.603 289.341C156.743 290.068 155.602 290.149 153.773 289.783C153.431 289.715 153.031 289.08 152.62 288.944C151.6 288.606 151.896 289.75 151.056 289.236C150.323 288.788 148.759 285.894 148.26 285.066C147.466 283.748 147.097 282.465 146.122 281.262C145.147 280.058 144.672 278.444 143.77 277.354C143.337 276.83 142.149 276.851 141.831 276.34C141.352 275.57 141.962 275.011 141.747 274.225ZM127.695 333.204C129.775 329.591 133.333 326.523 136.086 323.365C136.254 328.556 132.533 332.11 127.695 333.204ZM130.506 334.873C134.8 333.362 137.166 329.746 137.604 325.363C138.161 319.81 141.647 316.896 143.746 311.908C144.551 309.996 145.489 303.705 148.608 305.506C149.678 306.123 150.313 308.446 150.871 309.496C152.22 312.034 153.755 314.495 155.185 316.987C156.35 319.017 158.097 321.058 157.583 323.501C157.134 325.631 155.692 327.901 154.847 329.909C152.852 334.653 150.232 339.023 148.042 343.663C147.159 345.535 146.114 349.967 143.416 349.944C141.282 349.926 141.52 347.592 140.115 346.792C138.341 345.782 136.323 347.704 134.866 348.5C136.544 345.666 139.478 344.062 142.776 344.596C138.827 340.663 136.159 345.969 132.77 347.151C129.559 348.271 123.862 342.99 121.158 341.493C122.193 339.741 123.127 337.599 124.906 336.447C126.593 335.353 128.663 335.521 130.506 334.873ZM95.5899 370.811C96.0603 368.547 97.3892 367.209 98.2315 365.152C99.2082 367.645 96.9209 369.116 95.5899 370.811ZM163.823 384.707C163.592 392.332 162.969 399.937 162.744 407.565C162.641 411.082 162.018 414.438 161.604 417.915C161.255 420.855 161.433 423.743 159.582 426.254C156.664 430.215 150.991 431.353 146.586 432.821C143.352 433.898 140.08 434.875 136.886 436.072C134.011 437.149 131.695 438.781 128.962 440.061C126.518 441.207 123.879 441.885 121.445 443.106C118.928 444.369 116.939 445.907 114.353 447.03C111.258 448.376 108.708 450.77 105.955 452.669C103.532 454.342 100.969 455.634 98.884 457.737C96.9293 459.71 94.455 460.575 92.2402 462.328C89.8981 464.182 87.4463 465.387 84.8588 466.841C79.5579 469.82 72.4064 474.907 66.027 472.013C67.8516 469.683 71.5859 467.443 71.8699 464.233C72.2391 460.05 68.599 461.59 66.4911 462.926C63.2982 464.948 61.5319 467.39 59.1012 470.086C56.2599 473.238 52.6704 471.117 49.1935 470.231C51.5707 468.091 53.929 465.931 56.3021 463.787C58.3053 461.978 61.3709 460.021 62.5908 457.519C63.4627 455.729 63.4198 453.277 61.3161 452.349C58.962 451.31 56.3 453.5 54.5562 454.805C49.9282 458.268 46.8802 462.659 43.8413 467.478C42.2248 470.04 41.4802 469.844 38.506 469.331C35.3546 468.788 32.2032 468.21 29.0257 467.829C33.2346 463.507 37.9385 458.823 41.2629 453.766C42.3401 452.126 43.745 447.807 40.4635 447.41C39.1114 447.246 36.4191 450.011 35.3764 450.756C30.818 454.014 26.4354 458.124 23.4148 462.881C22.4171 464.451 22.1042 466.197 20.1727 466.328C17.6478 466.498 12.9565 464.089 10.5209 463.344C15.1756 457.476 19.7979 451.565 25.2366 446.39C30.2337 441.635 35.2182 438.18 41.0625 434.534C47.326 430.624 53.1605 426.123 58.9107 421.504C64.4154 417.083 70.1656 412.913 75.2323 407.976C85.3538 398.115 94.3686 386.775 101.834 374.783C103.58 371.977 105.225 369.099 106.646 366.113C107.981 363.309 108.596 359.956 110.398 357.406C111.021 356.525 111.898 355.87 112.453 354.951C112.976 354.085 112.799 353.039 113.597 352.272C115.443 350.5 118.804 351.568 120.528 352.811C123.303 354.808 125.547 357.232 128.597 358.904C131.664 360.585 134.981 361.808 138.377 362.634C146.314 364.564 154.183 366.148 162.269 367.32C161.437 370.406 163.48 370.892 164.157 373.668C164.979 377.038 163.926 381.275 163.823 384.707ZM87.3971 333.25C85.5978 330.576 83.9918 327.78 82.2228 325.089C81.1456 323.45 79.8104 321.691 80.7315 319.686C82.2818 316.307 87.7528 315.705 90.7214 317.178C97.4707 320.528 91.201 330.104 87.3971 333.25ZM69.5328 272.101C68.9112 266.875 70.9095 263.167 75.6373 260.427C79.0067 258.474 81.72 261.143 81.2595 264.703C80.5599 270.127 74.764 276.16 70.3407 278.99C70.0517 276.696 69.8063 274.396 69.5328 272.101ZM68.8121 257.149C70.2064 256.041 73.9414 257.454 75.5572 257.55C73.3353 259.491 71.1127 261.433 68.8901 263.375C68.7446 262.042 67.5253 258.17 68.8121 257.149ZM76.3102 206.68C87.5546 205.218 74.6107 217.285 71.3517 219.176C71.8819 216.608 73.1848 207.087 76.3102 206.68ZM106.245 185.553C104.735 191.738 92.9975 198.485 92.8744 188.354C92.8294 184.579 94.9493 184.884 98.0445 184.522C99.81 184.316 107.108 182.018 106.245 185.553ZM65.7007 195.131C64.3831 198.589 63.3263 202.137 62.0347 205.6C61.4623 207.133 60.7894 208.187 59.7235 209.402C58.8312 210.418 57.7695 210.674 57.8046 212.28C58.9226 212.064 59.7973 211.398 60.7001 210.756C60.4814 213.939 59.3564 217.364 58.8115 220.537C58.159 224.341 57.6155 228.147 57.4137 232.006C56.9764 240.395 56.9728 248.754 57.1571 257.149C57.2513 261.426 57.2935 265.706 57.5241 269.978C57.6394 272.103 57.7695 274.238 58.0325 276.35C58.1393 277.203 58.7581 279.019 58.3756 279.818C56.8737 282.956 50.2207 274.337 47.3316 275.602C47.7471 273.214 46.7888 273.737 45.1878 272.562C44.4122 271.993 43.9074 271.025 43.0988 270.518C42.8541 270.254 42.5848 270.019 42.2909 269.813C41.9569 269.358 41.6039 269.407 41.2334 269.959C37.9779 268.013 37.137 263.866 35.3897 261.077C34.4911 259.643 33.6228 259.419 33.4695 257.435C33.3366 255.707 33.5968 253.947 33.5264 252.211C33.447 250.254 33.3324 248.095 32.7832 246.2C32.1462 243.999 31.2694 244.179 29.5615 243.006C30.0875 242.775 30.4348 242.389 30.6029 241.846C30.0572 241.943 28.4 242.619 27.9879 242.133C27.1779 241.179 29.089 241.052 29.5911 240.671C27.4486 239.719 27.9099 238.938 28.6833 237.195C28.902 236.701 29.1108 235.964 29.2972 235.548C29.7036 234.639 29.9377 235.215 30.072 234.086C30.1993 233.01 29.2451 230.893 28.9639 229.746C28.4928 227.823 28.2319 226.16 28.6552 224.156C28.9983 222.533 29.9215 221.063 29.9855 219.395C30.0038 218.926 29.2901 218.771 29.2803 218.318C29.2662 217.657 29.8835 217.366 30.0439 216.755C30.4538 215.192 30.2689 213.538 30.9699 212.054C31.6006 210.721 32.8747 208.996 33.7761 207.833C34.4011 207.028 35.9346 206.119 36.1027 205.055C36.2138 204.35 35.1162 204.431 35.1647 203.9C35.2315 203.181 35.8348 202.948 36 202.414C36.4564 200.947 36.571 199.538 37.7501 198.414C39.2358 197 39.8806 197.592 39.9425 195.259C39.972 194.12 39.0614 193.945 39.5494 192.633C39.8145 191.92 40.5964 191.499 41.0963 190.994C42.5813 189.497 43.5825 188.166 44.64 186.315C45.5752 184.68 47.0665 183.728 48.0249 182.316C49.2722 180.476 47.4068 179.563 49.9388 179.043C49.5788 177.901 49.1963 176.977 50.1434 176.009C50.741 175.399 52.2563 175.772 52.785 175.066C53.3911 174.256 52.4954 172.336 53.4087 171.81C54.1512 171.383 55.2629 172.7 56.43 172.048C57.3188 171.552 58.6618 168.808 58.3756 167.799C60.6748 169.093 60.1017 168.202 61.2021 166.542C61.4489 166.171 62.1964 166.088 62.4087 165.712C62.8334 164.962 62.7364 164.197 63.3488 163.587C64.3683 162.571 66.0368 162.832 67.159 162.106C68.0864 161.507 68.0372 160.861 68.7769 160.296C69.409 159.813 70.4475 159.72 71.0621 159.219C72.2658 158.239 72.2778 157.204 73.7839 156.358C75.5677 155.359 77.1476 154.508 78.7704 153.183C79.8279 152.32 80.832 150.788 82.0695 150.218C83.7809 149.43 85.114 149.374 86.7882 148.249C87.9982 147.436 89.1422 146.095 90.3298 145.409C91.2263 144.893 91.8549 145.004 92.9841 144.684C95.0168 144.108 95.5118 142.193 97.1698 141.413C98.3082 140.878 99.9654 141.368 101.216 141.087C105.105 140.213 108.948 138.33 112.852 137.286C117.616 136.013 122.415 134.898 127.216 133.773C122.804 139.753 117.184 145.148 111.485 149.898C109.614 151.457 99.3622 158.565 104.888 161.6C107.106 162.818 111.925 158.883 113.716 157.921C117.322 155.984 121.057 154.434 124.834 152.867C130.942 150.334 138.895 145.828 145.683 146.191C141.551 151.26 136.394 155.329 131.668 159.807C127.325 163.922 120.782 167.781 122.83 174.517C116.73 172.966 111.251 171.131 104.909 171.537C102.068 171.72 99.2257 171.377 96.3978 171.776C93.323 172.21 90.4275 173.239 87.4723 174.143C85.1344 174.856 82.5511 174.912 80.4003 176.1C79.3611 176.675 78.0757 177.494 77.142 178.207C75.8968 179.157 75.6141 179.786 74.6361 181.037C71.1486 185.504 67.7736 189.69 65.7007 195.131ZM46.6229 279.66C46.4323 278.886 46.2593 278.182 46.0407 277.299C47.982 278.494 47.982 278.494 46.6229 279.66ZM31.9507 255.041C31.7117 255.372 30.7062 255.478 30.4144 255.192C30.0509 254.837 31.0064 253.454 31.1597 253.161C31.5387 253.452 32.4106 254.404 31.9507 255.041ZM27.7946 246.081C28.0512 245.137 28.3093 244.193 28.5659 243.25C28.8816 244.125 30.3047 245.092 30.3364 245.925C30.3561 246.478 28.0758 246.203 27.7946 246.081ZM28.6193 247.376C30.8468 248.843 31.0803 250.573 31.1464 253.104C28.4808 252.221 28.8633 249.641 28.6193 247.376ZM67.358 147.49C67.1337 148.099 66.1789 149.995 65.48 148.669C65.2564 148.244 66.8932 147.665 67.358 147.49ZM66.7189 145.423C67.2694 144.927 68.3789 145.544 69.0019 145.144C69.4386 144.862 69.2937 144.577 69.499 144.41C69.5398 144.376 70.1332 143.176 70.3765 142.903C70.8061 142.424 71.7427 142.125 72.2644 141.692C73.7234 140.483 74.5468 138.893 75.465 137.276C76.5598 135.345 76.9093 135.121 78.6755 134.237C79.8933 133.627 80.8369 132.881 81.8276 131.845C82.9695 130.652 82.8858 129.798 83.8231 128.494C84.2864 127.85 84.953 127.77 85.4923 127.251C86.1392 126.63 86.4676 125.761 87.0659 125.135C87.324 124.863 88.1536 124.864 88.3097 124.632C88.5094 124.338 88.6648 123.163 88.8518 122.947C89.2083 123.429 89.5662 123.911 89.9227 124.394C91.3304 121.918 92.3576 119.873 94.7117 118.225C97.1839 116.495 99.3179 113.963 101.873 112.415C102.447 112.066 103.617 111.92 104.056 111.407C104.798 110.539 104.155 109.767 104.697 109.029C105.311 108.193 106.5 108.87 107.281 108.509C108.269 108.054 108.551 106.721 109.823 106.868C105.641 111.816 105.693 119.514 105.472 125.694C105.375 128.356 107.052 129.699 104.577 131.652C102.471 133.315 99.5014 132.821 97.0116 133.915C93.8848 135.289 90.5407 136.02 87.3514 137.217C84.0516 138.455 81.3987 140.623 78.2234 142.058C75.4228 143.322 73.511 145.119 70.9496 146.68C69.9975 147.26 68.5231 148.102 67.3875 147.409C66.6767 146.975 65.7907 146.26 66.7189 145.423ZM113.951 103.939C114.133 103.236 117.702 101.389 118.581 100.786C119.898 99.8799 121.849 97.6679 123.32 98.5468C123.83 96.5049 125.819 94.2331 127.576 93.8007C129.526 93.3197 132.87 91.6484 134.788 90.1887C135.349 89.7626 135.533 89.1397 136.193 88.7396C137.341 88.0435 138.479 88.4232 139.585 87.4747C139.754 87.3298 141.284 84.8035 141.344 84.8274C141.422 85.0988 141.494 85.373 141.556 85.6486C142.717 85.0046 143.751 84.492 144.475 83.6707C144.638 83.4844 143.575 83 143.911 82.6315C144.322 82.1794 145.24 82.6843 145.655 82.2554C144.363 88.6714 145.325 96.9289 151.834 100.181C144.094 101.018 136.534 98.6902 128.698 100.12C124.947 100.805 121.134 101.927 117.723 103.653C115.632 104.71 112.959 108.497 110.879 106.658C111.704 105.557 112.964 104.873 113.951 103.939ZM151.507 85.4827C154.401 81.9425 158.792 80.5411 163.213 81.8089C168.389 83.2939 166.206 86.9108 165.424 90.927C163.931 88.7368 160.695 86.5648 157.939 86.4987C154.033 86.4059 155.509 89.6607 157.855 90.8265C159.988 91.8861 163.645 92.1814 165.172 94.1086C166.658 95.9832 166.088 99.0495 166.328 101.26C165.173 101.089 164.017 100.917 162.862 100.745C163.832 95.5852 159.564 95.3349 155.586 93.8801C151.566 92.4106 148.213 89.5116 151.507 85.4827ZM164.472 72.7758V77.5648C162.863 76.6465 161.253 75.7297 159.642 74.8121C161.253 74.1336 162.863 73.4543 164.472 72.7758ZM177.41 111.041C182.784 112.497 188.121 114.039 193.288 116.048C195.164 116.778 197.219 117.036 199.058 117.86C200.808 118.644 201.071 118.563 200.448 120.097C198.704 124.396 194.572 123.653 190.951 122.996C185.284 121.966 179.734 120.539 174.138 119.196C168.668 117.885 163.082 117.024 157.695 115.38C152.166 113.694 146.779 112.097 141.092 110.983C139.433 110.658 126.304 109.454 126.404 108.081C134.672 107.007 143.184 108.066 151.49 108.177C160.121 108.293 169.038 108.772 177.41 111.041ZM170.114 94.4131C170.217 91.4572 170.258 88.4921 170.625 85.5537C173.085 88.5898 175.305 89.499 178.406 86.6527C181.375 83.9288 182.037 82.5085 185.801 85.0693C189.063 87.2911 192.151 87.1885 195.616 85.2443C197.729 84.0582 201.126 79.2122 203.348 80.21C204.406 80.6853 205.182 82.602 206.251 83.3072C207.593 84.1904 209.655 84.8035 211.218 85.1466C214.911 85.9552 217.11 83.5807 219.428 81.0404C222.789 77.3574 222.69 79.4963 225.807 82.05C229.281 84.8991 232.187 83.5076 235.335 81.0762C237.251 86.6935 237.968 92.8276 238.511 98.7162C238.693 100.705 239.375 103.528 237.59 104.934C236.331 105.925 233.66 105.964 232.143 106.512C226.725 108.471 221.52 111.25 216.989 114.807C215.223 116.194 213.684 117.891 211.272 117.575C208.972 117.274 206.738 115.35 204.889 114.079C202.883 112.701 200.852 111.136 198.507 110.368C197.134 109.918 194.934 110.081 193.732 109.255C191.498 107.722 194.127 103.699 193.57 100.998C193.149 98.9475 191.969 94.6725 189.146 95.8742C184.943 97.6622 187.388 104.643 189.7 106.822C184.972 105.982 179.738 104.756 175.178 103.198C171.656 101.995 169.988 98.018 170.114 94.4131ZM249.403 108.81C259.108 106.084 268.189 104.247 278.288 103.751C282.76 103.531 287.087 103.67 291.509 103.71C294.053 103.733 295.992 101.681 293.96 99.3195C291.146 96.0507 282.562 97.2952 278.759 97.1483C268.565 96.7545 259.218 97.9133 249.564 101.273C250.585 99.3926 253.037 99.1486 254.718 98.1762C256.78 96.9823 258.182 95.0157 259.063 92.8332C261.355 87.1568 259.048 81.8082 256.651 76.6233C261.36 77.8904 266.232 80.6649 270.967 81.3694C271.96 81.5171 272.597 81.4222 273.475 81.7836C274.014 82.0051 274.184 82.7715 274.852 82.9388C275.175 83.0197 275.95 82.2905 276.315 82.3939C277.758 82.8017 276.617 82.91 277.529 83.4999C278.253 83.9682 278.194 84.5714 279.521 84.35C280.11 84.2529 280.748 83.3424 281.058 83.3171C281.453 83.2854 281.362 82.8045 281.966 82.9444C283.066 83.2004 282.969 84.6172 283.336 85.3147C283.726 86.0565 283.171 87.0436 284.358 87.45C285.244 87.7545 285.467 86.8172 286.222 86.8847C286.68 86.9255 287.63 87.585 288.034 87.9872C289.337 89.2824 291.122 90.7118 292.874 91.5542C292.702 91.3812 293.7 90.9643 293.461 90.8665C293.301 90.8011 294.349 91.0543 294.333 91.0501C295.345 91.2807 295.88 92.8339 296.39 93.4006C297.331 94.4384 298.792 95.5346 300.11 95.993C302.389 96.7854 302.319 95.8376 303.151 98.5461C304.771 95.9986 305.393 100.265 307.401 100.734C308.442 100.977 308.321 100.532 309.266 101.077C309.916 101.45 310.348 102.593 310.838 103.145C311.048 102.349 311.257 101.553 311.467 100.757C312.914 103.5 316.038 107.847 319.464 107.061C319.464 107.809 319.155 108.703 319.734 109.342C320.138 109.788 320.794 109.281 321.11 109.541C321.387 109.767 322.047 110.669 322.259 110.817C322.676 111.109 323.433 111.323 323.795 111.614C324.114 111.871 324.272 113.097 324.626 113.539C325.291 114.371 326.441 114.537 326.985 115.534C327.109 114.551 327.233 113.566 327.357 112.581C328.436 113.415 328.528 114.062 328.793 115.282C329.171 117.019 328.67 116.611 329.868 117.345C331.045 118.066 331.659 117.985 332.738 119.236C333.796 120.462 333.806 121.217 335.332 119.94C335.616 120.885 335.708 122.107 336.466 122.831C337.038 123.378 339.409 123.402 339.635 124.695C335.181 120.936 338.112 126.644 339.638 124.704C339.96 126.781 341.479 127.452 343.215 128.93C344.834 130.308 345.099 130.208 345.651 132.524C345.639 132.473 346.465 132.985 346.525 133.088C344.948 133.313 347.392 135.075 347.806 135.397C348.107 135.632 348.5 135.071 349.001 135.451C349.574 135.887 350.041 136.877 350.507 137.474C351.771 139.092 352.707 140.483 354.037 141.799C355.472 143.219 356.17 145.015 357.548 146.675C359.078 148.519 359.904 150.638 361.183 152.64C362.398 154.543 364.013 156.071 365.42 157.814C367.664 160.587 368.428 166.696 372.61 166.857C372.365 167.11 372.706 169.003 372.746 169.353C372.944 171.072 372.812 172.726 373.83 174.283C374.063 172.507 374.992 173.192 375.799 174.125C377.142 175.677 375.963 175.287 376.034 176.86C376.12 178.767 376.336 177.292 377.063 178.957C377.632 180.261 377.944 181.108 378.249 182.555C375.886 182.742 374.804 180.812 373.931 178.941C373.566 178.158 373.44 176.872 372.793 176.261C372.106 175.61 371.161 175.559 370.454 174.832C369.098 173.437 368.51 171.26 366.911 169.902C365.105 168.368 364.705 167.643 363.211 165.808C361.56 163.779 359.279 162.354 357.546 160.392C355.811 158.425 355.951 159.499 353.772 158.787C351.454 158.029 347.705 150.74 344.784 153.548C344.9 151.711 342.15 149.984 340.76 149.319C340.159 149.031 339.459 149.291 338.858 148.86C338.205 148.393 338.159 147.491 337.501 146.93C337.501 146.93 336.492 147.175 336.288 147.072C335.872 146.861 335.868 146.114 335.5 145.868C334.483 145.188 333.269 144.475 332.189 143.896C329.564 142.487 327.244 140.753 324.71 139.058C322.54 137.605 319.913 134.982 317.404 134.216C315.213 133.548 313.836 133.888 312.041 132.549C311.064 131.819 311.352 131.575 309.781 131.121C308.286 130.689 307.446 130.912 306.654 129.326C305.268 126.552 306.143 121.136 305.875 118.025C305.59 114.723 305.252 111.339 304.391 108.128C303.373 104.333 302.028 102.35 297.958 103.244C289.893 105.016 281.926 106.702 273.824 108.259C257.681 111.36 241.814 116.421 226.025 120.914C224.823 121.257 218.114 122.793 219.484 119.323C220.115 117.723 224.362 117.127 225.783 116.624C233.587 113.862 241.426 111.048 249.403 108.81ZM246.691 101.748C245.512 102.197 244.333 102.647 243.154 103.097V99.818C244.333 100.461 245.512 101.104 246.691 101.748ZM241.791 84.4118C242.815 85.2493 244.898 83.2341 245.769 82.8256C247.257 82.1288 249.152 81.5297 250.815 81.6732C253.88 81.9383 256.122 84.9568 255.561 88.0175C254.61 93.1953 247.233 95.6436 243.165 97.6679C243.035 95.8327 242.441 93.627 243.728 92.04C244.845 90.6619 247.011 90.7618 248.042 89.2957C250.636 85.6121 243.606 85.2781 242.035 88.2073C241.414 86.3349 240.795 84.4632 240.175 82.5907C241.671 82.3432 241.014 83.7776 241.791 84.4118ZM249.047 74.277C247.583 75.2234 246.119 76.1698 244.656 77.1162C243.93 73.8404 246.403 73.4093 249.047 74.277ZM382.421 188.289C380.505 189.204 380.025 187.02 378.647 186.925C380.275 185.924 380.275 185.924 382.421 188.289ZM390.217 235.992C390.456 239.132 390.269 242.308 390.687 245.436C391.006 247.815 391.97 250.029 392.072 252.436C392.297 257.705 390.518 263.072 386.924 266.935C383.524 270.589 378.661 273.734 374.072 275.27C372.004 275.961 369.846 277.496 367.838 278.062C365.616 278.69 363.505 277.325 361.672 279.774C360.45 269.268 361.343 258.29 361.247 247.718C361.15 237.122 361.264 226.523 359.472 216.042C357.876 206.708 354.729 196.208 348.929 188.571C346.572 185.471 343.672 182.931 340.613 180.553C339.025 179.32 337.437 178.001 335.67 177.027C332.949 175.527 330.631 175.734 327.672 175.307C323.437 174.696 319.5 174.179 315.249 175.372C311.292 176.482 306.934 177.747 303.389 179.676C299.858 181.598 295.758 182.391 292.092 184.112C289.599 185.284 284.42 189.196 281.653 188.492C278.975 187.809 275.011 183.264 273.301 181.229C271.116 178.627 269.308 175.611 267.37 172.812C266.689 171.829 265.301 170.31 265.125 169.048C264.817 166.857 265.695 167.573 267.787 167.818C273.168 168.449 278.229 169.448 283.385 171.142C285.952 171.984 290.97 175.393 293.536 173.35C297.455 170.231 291.501 164.87 289.321 163.069C285.605 160 281.284 157.721 277.324 154.994C273.116 152.096 267.552 149.011 264.843 144.549C272.751 146.883 280.652 149.556 288.328 152.566C291.841 153.943 295.313 155.398 298.612 157.229C300.465 158.257 304.209 161.038 306.44 159.706C311.291 156.811 300.15 148.4 298.543 146.682C296.044 144.012 293.597 141.366 290.852 138.943C289 137.309 286.09 136.159 285.229 133.748C288.303 134.861 290.789 137.041 293.667 138.522C295.174 139.298 296.549 139.744 298.214 139.982C299.988 140.236 300.2 140.518 301.598 141.224C302.686 141.774 303.805 142.509 305.028 142.883C305.898 143.15 307.42 143.196 308.181 143.69C308.571 144.245 308.972 144.791 309.388 145.327C309.852 145.464 310.309 145.621 310.759 145.8C311.434 146.402 311.835 147.233 312.492 147.853C317.26 152.362 323.637 155.588 328.982 159.366C334.039 162.939 339.405 166.171 344.262 170.071C349.851 174.56 355.652 179.384 360.406 184.766C363.092 187.808 365.301 191.257 367.558 194.62C369.192 197.056 371.569 199.076 372.98 201.588C376.06 207.063 378.616 212.981 381.931 218.368C385.309 223.857 389.71 229.311 390.217 235.992ZM344.784 267.76C345.706 263.96 350.902 259.524 354.222 257.848C352.549 261.988 348.09 264.812 344.784 267.76ZM353.353 281.015C350.521 286.891 338.067 287.564 339.756 278.867C340.584 274.607 344.098 271.992 347.115 269.204C348.509 267.916 351.924 263.307 354.083 264.049C353.981 267.363 353.787 270.691 353.794 274.005C353.798 276.218 354.355 278.936 353.353 281.015ZM349.753 213.287C350.902 215.867 352.047 218.017 349.915 220.325C348.953 221.367 345.819 223.647 344.401 223.141C339.848 221.517 348.527 214.448 349.753 213.287ZM322.22 190.324C323.316 190.264 324.38 190.427 325.464 190.36C326.543 190.293 326.657 190.101 327.658 190.238C327.763 190.392 327.869 190.545 327.974 190.698C328.111 191.728 328.652 191.84 329.596 191.034C330.91 191.327 331.764 191.522 333.02 192.232C329.63 194.676 325.504 197.517 321.349 198.338C314.78 199.634 316.595 190.634 322.22 190.324ZM221.524 245.288C220.844 246.659 218.885 243.235 218.4 242.597C219.304 242.595 222.214 243.906 221.524 245.288ZM274.301 209.222C279.404 206.244 285.465 203.629 290.946 201.412C291.91 206.056 287.21 212.05 284.314 215.228C281.974 217.797 279.151 220.462 275.977 221.941C272.545 223.54 268.795 222.837 268.962 218.351C269.023 216.711 269.396 214.074 270.063 212.575C270.924 210.643 272.551 210.242 274.301 209.222ZM205.317 124.756C206.076 124.711 214.327 123.645 214.284 124.671C214.154 127.757 206.145 125.334 205.317 124.756ZM146.97 184.337C151.328 178.96 158.363 173.156 158.466 165.641C158.618 154.582 146.346 160.1 140.176 160.56C143.438 157.354 159.833 143.905 150.135 139.129C147.348 137.756 143.386 139.097 140.589 139.817C135.627 141.093 131.013 143.303 126.137 144.841C129.621 141.133 135.64 136.918 135.443 131.303C135.202 124.466 129.59 126.119 124.738 127.122C122.873 127.508 114.543 130.822 112.978 128.572C112.405 127.748 113.333 126.701 113.529 125.967C113.876 124.669 113.768 124.215 113.78 122.889C113.804 120.214 115.582 116.777 114.132 114.289C113.801 114.854 113.517 115.443 113.281 116.054C112.802 114.606 113.124 113.07 112.646 111.621C124.76 114.72 137.083 116.416 149.273 119.06C155.445 120.399 161.253 122.704 167.508 123.742C173.817 124.787 180.017 126.388 186.337 127.386C192.104 128.295 197.63 129.811 203.34 130.972C208.908 132.105 214.617 129.623 220.051 128.366C232.221 125.551 244.387 122.667 256.574 119.937C270.636 116.783 285.265 114.088 298.725 108.83C298.986 115.838 299.547 122.833 300.403 129.793C294.459 126.983 285.637 123.318 279.627 128.347C277.222 130.358 276.481 133.832 277.431 136.786C278.466 140.002 281.635 141.496 283.726 143.917C277.362 142.285 260.944 130.782 258.022 142.409C255.957 150.622 266.026 155.926 270.949 160.548C266.06 159.591 259.513 155.683 256.642 161.964C254.161 167.395 257.15 173.304 260.21 177.783C261.869 180.211 263.734 182.494 265.498 184.846C266.43 186.089 267.341 187.351 268.32 188.558C269.303 189.768 271.157 191.037 271.846 192.339C273.232 194.966 270.434 195.127 268.258 196.077C265.542 197.262 263.209 199.252 260.724 200.839C255.035 204.471 250.063 207.845 243.34 209.006C236.419 210.2 229.754 211.448 222.924 213.115C216.115 214.777 210.556 216.373 203.596 214.226C200.423 213.247 197.838 212.376 194.472 212.561C190.937 212.754 188.87 212.57 185.963 210.381C173.456 200.96 159.879 193.23 146.97 184.337ZM124.421 174.879C129.255 172.454 134.121 170.017 139.115 167.933C143.248 166.207 149.524 164.197 154.048 164.953C152.773 168.23 150.446 170.918 147.949 173.33C145.741 175.464 142.983 178.685 140.311 180.174C137.885 181.525 135.063 179.384 132.67 178.487C130.041 177.502 126.423 177.043 124.421 174.879ZM125.636 187.116C128.045 186.115 133.222 189.474 135.413 190.347C139.719 192.065 144.048 193.857 147.843 196.566C143.209 201.921 137.962 206.816 131.726 210.256C127.624 212.518 120.71 215.114 116.84 211.005C111.978 205.842 117.823 195.322 121.264 190.897C121.378 191.655 121.493 192.41 121.608 193.168C122.706 191.41 123.544 187.986 125.636 187.116ZM214.072 232.946C211.066 233.578 210.045 233.007 208.061 230.702C206.72 229.145 205.403 227.527 203.89 226.126C202.347 224.697 198.536 221.25 203.392 223.235C207.818 225.043 211.609 225.947 216.479 225.239C222.047 224.429 227.238 222.075 232.728 220.883C229.718 223.517 226.73 226.176 223.715 228.802C220.53 231.577 218.119 232.093 214.072 232.946ZM214.759 254.125C208.173 259.081 194.914 258.546 199.377 247.64C200.055 245.984 201.003 244.426 202.101 243.014C202.466 242.543 203.117 241.567 203.639 241.25C205.096 240.367 204.692 240.26 206.092 241.733C207.3 243.005 216.743 253.387 214.759 254.125ZM212.806 235.177C213.41 234.981 215.952 233.507 216.531 234.323C217.117 235.148 212.134 238.005 212.806 235.177ZM260.752 310.765C259.271 314.308 247.42 319.438 249.628 312.295C250.606 309.132 251.528 306.736 255.217 306.496C257.346 306.358 262.056 307.646 260.752 310.765ZM282.011 262.749C283.962 259.908 290.405 256.067 293.155 260.303C294.481 262.345 291.265 263.39 289.32 262.866C288.276 262.582 287.421 261.959 286.286 261.912C284.826 261.852 283.4 262.997 282.011 262.749ZM287.183 265.569C285.856 266.912 277.855 273.645 276.56 272.606C279.172 268.871 282.173 264.699 287.183 265.569ZM274.115 333.7C271.337 333.857 272.725 329.67 272.993 327.996C273.665 329.163 277.202 333.526 274.115 333.7ZM281.175 326.195C280.276 324.597 277.855 322.216 278.402 320.158C278.821 318.585 282.601 316.469 284.183 317.372C286.286 318.571 283.238 326.461 281.175 326.195ZM347.101 309.424C345.913 313.52 344.681 312.463 340.954 313.257C337.215 314.052 334.631 317.227 331.339 318.929C332.483 316.513 333.192 313.567 335.106 311.606C335.549 311.153 338.262 310.258 336.716 309.209C335.365 308.292 333.422 311.268 332.842 312.08C329.991 316.071 327.997 320.946 326.351 325.539C325.541 327.794 324.892 330.093 324.509 332.462C324.167 334.572 324.536 336.781 324.188 338.838C323.627 342.149 319.129 342.165 316.425 343.02C313.976 343.793 311.538 344.631 308.996 345.047C306.792 345.408 304.506 344.75 302.371 345.184C300.058 345.654 299.019 347.026 296.39 346.716C294.248 346.464 292.243 345.478 290.071 345.38C288.038 345.288 286.011 345.991 283.99 345.419C281.951 344.841 282.049 344.617 282.514 342.614C282.803 343.155 283.094 343.695 283.384 344.236C284.197 343.598 284.759 341.655 285.257 340.742C286.03 339.329 286.659 338.84 286.373 337.081C285.95 334.48 283.607 332.631 283.075 330.158C282.521 327.578 284.428 325.468 285.556 323.315C287.097 320.367 287.077 318.18 285.785 315.131C286.759 315.388 287.733 315.645 288.707 315.903C287.372 313.004 282.844 314.179 280.574 315.038C279.432 315.469 277.623 317.165 276.396 317.122C274.708 317.063 273.829 314.844 273.104 313.623C271.005 310.088 268.609 306.598 266.127 303.316C265.444 302.414 264.55 301.834 264.786 300.805C264.987 299.932 266.944 298.694 267.578 298.157C269.959 296.143 272.99 295.028 275.226 292.909C278.606 289.707 282.503 287.412 285.958 284.273C289.558 281.003 293.267 278 297.018 274.91C300.818 271.781 304.109 268.093 307.882 264.931C308.859 266.702 310.752 273.044 312.917 273.535C315.442 274.107 315.367 271.119 315.242 269.322C315.063 266.76 313.64 264.271 313.482 261.826C313.312 259.211 315.828 258.042 317.727 256.529C320.66 254.193 327.151 248.87 323.662 244.49C320.656 240.717 310.881 247.951 308.187 250.126C305.897 251.975 304.128 253.647 301.551 255.105C299.737 256.13 296.696 260.071 294.548 259.707C291.992 259.275 290.993 256.483 287.866 256.576C284.811 256.665 282.215 258.866 280.321 261.075C276.037 266.069 274.565 272.752 270.662 277.959C268.737 280.525 266.241 282.645 264.154 285.073C261.861 287.739 261.374 290.81 259.114 293.419C252.645 284.801 245.597 276.641 238.776 268.306C235.368 264.144 232.033 259.932 228.699 255.712C227.45 254.13 226.041 252.646 224.897 250.984C223.329 248.709 223.611 246.882 222.996 244.343C222.724 243.219 221.446 241.872 221.788 240.797C222.249 239.352 225.477 238.218 226.643 237.628C231.398 235.213 235.711 232.197 240.145 229.247C248.356 223.787 256.663 218.666 265.397 214.002C265.246 216.012 263.938 218.094 264.817 220.11C265.226 218.951 265.873 213.783 267.422 213.561C267.125 213.604 267.369 220.187 267.609 221.127C268.323 223.932 270.397 225.85 273.364 225.831C279.015 225.795 284.079 219.648 287.216 215.576C289.339 212.819 291.379 209.613 292.127 206.162C292.8 203.064 292.06 200.909 295.28 199.336C301.888 196.109 308.55 193.479 315.617 191.768C315.3 194.813 314.417 198.562 317.185 200.753C320.241 203.171 324.239 201.016 327.116 199.416C329.965 197.832 334.359 193.481 337.706 194.745C340.998 195.988 343.29 200.117 345.132 202.858C346.756 205.275 348.524 207.017 346.643 209.711C344.535 212.729 343.163 215.675 341.474 218.954C340.825 220.214 340.206 221.037 340.665 222.328C340.813 222.747 342.506 225.242 342.965 225.6C345.897 227.882 349.857 223.541 351.95 221.894C352.688 228.988 352.853 236.052 353.151 243.169C353.37 248.382 355.388 253.514 351.11 257.324C346.833 261.134 343.264 265.044 340.657 270.202C339.265 272.958 338.016 275.786 336.51 278.484C335.504 280.286 333.382 282.93 334.681 285.052C336.051 283.751 336.459 281.774 337.601 280.308C338.285 283.351 338.974 286.728 342.193 288.017C345.897 289.501 349.578 286.934 352.858 285.505C351.682 293.641 349.388 301.547 347.101 309.424ZM343.315 318.777C340.773 324.21 338.477 330.76 333.783 334.761C332.753 335.639 328.373 339.068 326.706 338.494C325.292 338.006 326.07 335.148 326.317 333.923C327.568 327.705 329.731 323.793 334.773 319.827C336.859 318.185 339.538 316.087 342.229 315.682C345.125 315.246 344.291 316.689 343.315 318.777ZM415.015 447.734C408.425 438.772 399.11 431.807 390.307 425.074C386.319 422.024 381.926 419.738 377.897 416.687C373.343 413.238 368.717 409.911 363.615 407.312C353.943 402.383 343.391 398.948 334.263 393.12C329.811 390.277 324.942 387.53 320.757 384.34C318.918 382.938 317.294 381.145 315.633 379.539C314.09 378.047 310.776 375.882 310.162 373.699C312.73 373.278 314.191 370.785 316.484 370.532C317.239 370.447 321.971 371.699 321.324 369.404C323.04 369.361 323.24 369.336 324.679 368.96C325.274 368.804 325.98 369.047 326.583 368.834C327.504 368.509 328.131 367.569 329.062 367.209C329.723 366.953 332.18 367.239 332.553 366.92C333.57 366.051 332.49 366.129 331.883 365.043C333.859 364.993 335.216 365.992 337.198 364.93C337.801 364.606 338.311 363.861 338.896 363.475C339.933 362.79 340.308 363.852 341.018 362.43C341.682 364.392 341.664 363.849 343.266 363.272C344.861 362.697 346.013 362.282 347.83 362.138C352.171 361.795 356.528 362.321 360.849 362.013C362.429 361.9 363.78 361.541 365.351 361.748C366.733 361.93 366.317 362.892 367.467 361.596C367.734 361.295 366.87 360.471 367.284 360.038C367.467 359.846 368.061 359.981 368.287 359.883C370.307 359.001 370.316 360.233 370.675 361.838C371.86 361.561 373.068 361.31 374.098 360.615C373.577 360.151 372.708 359.638 373.21 358.791C374.918 359.438 376.035 359.139 375.181 361.015C376.9 361.583 377.222 360.843 378.766 360.68C379.679 360.585 380.954 361.151 381.715 360.422C382.546 359.626 381.235 358.761 382.761 358.076C383.075 358.235 383.306 358.476 383.458 358.797C384.282 359.045 384.133 359.37 383.013 359.77C386.014 361.326 385.309 359.586 386.57 357.747C386.861 357.323 388.164 356.005 388.759 356.641C389.659 357.606 387.82 357.913 388.214 358.872C388.898 360.535 391.282 358.404 392.014 357.562C392.568 356.926 392.794 355.705 393.391 355.23C394.22 354.569 395.413 355.59 396.451 355.407C401.193 354.575 405.672 348.199 402.099 343.931C401.139 342.784 400.326 343.012 399.182 342.288C398.051 341.573 397.417 340.335 396.509 339.312C394.437 336.979 391.9 335.231 389.003 334.114C382.283 331.522 375.042 329.631 367.985 328.239C364.717 327.595 361.238 326.61 357.893 326.617C355.921 326.62 352.953 328.153 351.11 327.419C347.527 325.991 352.787 318.683 353.655 316.321C356.205 309.387 358.128 301.992 359.39 294.712C359.637 293.286 359.542 291.441 360.055 290.083C360.644 288.523 360.771 288.743 362.031 288.616C364.31 288.386 366.801 289.58 369.173 289.167C371.802 288.71 374.643 288.923 377.298 288.109C378.518 287.736 379.649 287.33 380.452 286.3C380.705 285.977 380.423 285.696 380.583 285.47C380.633 285.399 381.54 284.42 381.57 284.364C381.561 283.857 381.604 283.355 381.702 282.857C382.622 283.621 382.168 285.222 383.719 285.26C383.995 283.552 383.998 283.208 385.118 282.247C385.033 282.321 385.963 281.531 385.843 281.615C385.9 281.311 386.011 281.027 386.178 280.764C386.702 280.511 387.256 280.376 387.838 280.362C389.05 279.116 388.547 278.451 388.547 276.774C389.524 277.282 390.502 277.79 391.48 278.298C391.716 273.33 394.741 270.609 396.751 266.583C397.607 264.867 398.48 263.527 398.685 261.457C398.803 260.263 398.495 259.21 398.989 258.085C399.437 257.064 400.44 256.514 400.859 255.402C401.684 253.214 401.069 250.42 401.114 248.148C401.177 244.996 401.491 241.855 401.595 238.705C401.797 232.521 401.175 226.166 400.25 220.054C399.807 217.13 399.067 214.294 398.486 211.4C398.007 209.023 396.863 206.793 396.454 204.581C396.284 203.662 396.547 202.837 396.27 201.82C395.904 200.484 395.294 199.17 394.84 197.858C393.78 194.793 392.732 191.732 391.539 188.714C389.228 182.866 386.523 177.193 383.953 171.457C381.481 165.941 379.434 160.253 376.232 155.103C373.077 150.03 369.681 145.042 366.206 140.185C362.585 135.128 358.007 130.783 354.496 125.679C347.903 116.096 338.707 108.199 329.086 101.678C309.234 88.2221 287.78 74.7868 263.974 70.1729C260.386 69.4782 256.752 68.9958 253.096 68.9058C250.827 68.8496 247.068 69.9464 244.92 69.1786C242.514 68.318 242.734 65.6159 242.132 63.4967C241.358 60.7714 239.611 58.9868 237.627 57.0603C235.538 55.0325 233.644 52.6643 231.039 51.2855C228.4 49.8891 225.286 49.3667 222.362 48.9448C219.751 48.5665 215.85 48.9195 213.465 47.7818C211.293 46.7454 212.366 45.6661 214.4 46.5535C214.549 45.6563 214.669 45.0769 215.244 44.3836C215.532 44.0349 216.897 43.5462 216.93 43.2207C216.968 42.8404 215.824 41.756 215.66 41.2649C215.309 40.2076 215.509 38.7433 215.926 37.751C217.977 39.5741 218.571 40.3815 220.861 38.6388C221.828 37.903 222.125 37.5786 223.245 37.2073C223.549 37.1065 224.23 37.4178 224.495 37.2432C225.507 36.5768 224.576 36.7339 225.057 35.9461C224.936 36.1449 225.786 34.0515 225.745 34.4892C225.849 33.3741 226.178 33.7168 225.506 32.3468C224.187 29.6665 220.829 29.5569 222.541 26.4982C223.213 25.2948 223.806 25.4146 223.996 23.6697C224.098 22.7315 223.971 21.6559 223.967 20.7016C223.959 18.7499 224.326 17.3835 222.498 16.3898C220.74 15.434 219.118 16.4826 218.405 14.1121C217.657 11.6249 218.41 8.43609 215.716 6.73284C213.747 5.48845 210.904 6.55235 208.728 5.94373C206.548 5.33426 204.543 3.10345 202.33 4.81619C200.758 6.03359 199.924 9.02651 196.962 7.40798C195.624 6.67807 194.889 4.22726 194.045 2.85286C192.702 0.662202 191.625 -0.129165 189.558 2.00447C188.284 3.32051 185.597 6.52387 185.432 8.34553C185.252 10.3564 187.007 11.1967 184.804 12.3863C182.613 13.57 181.384 12.702 179.605 15.1045C177.841 17.488 179.206 18.8047 177.163 21.0852C174.608 23.9357 173.249 25.1662 173.284 29.0067C173.309 31.6409 170.982 33.9163 172.339 36.4153C173.861 39.216 178.302 40.3807 180.994 41.5207C180.096 43.1816 178.862 44.2465 179.911 45.9558C180.862 47.5041 183.549 47.8261 185.214 47.5449C186.335 47.3558 186.375 47.5259 187.256 46.7377C187.834 46.2223 187.042 45.5782 188.232 45.2928C189.497 44.9869 191.519 47.4682 192.341 48.0891C190.504 50.4734 185.458 50.9192 182.789 52.1272C181.162 52.8647 179.667 53.9553 178.01 54.6141C176.508 55.2118 174.679 55.0732 173.316 55.9979C170.963 57.5954 169.984 61.5525 168.542 63.8792C166.909 66.5131 165.327 67.7358 162.194 68.2829C158.287 68.9642 155.14 69.2384 151.496 70.94C147.046 73.0184 142.659 75.2122 138.289 77.453C131.239 81.0664 124.69 84.7754 118.144 89.1453C111.296 93.7184 104.634 98.4912 98.0262 103.269C91.49 107.995 86.0028 113.808 80.325 119.522C75.7357 124.142 71.7082 129.128 67.1365 133.747C61.7393 139.2 57.7695 146.082 52.7653 151.867C50.0274 155.032 47.4075 158.144 45.6898 161.872C44.2976 164.894 41.8761 167.859 40.2596 171.03C38.1945 175.083 36.2398 179.072 33.9209 182.992C32.9696 184.6 31.8389 185.98 30.8349 187.516C29.5482 189.482 29.6241 191.381 29.2782 193.648C28.9168 193.095 28.5561 192.541 28.1946 191.989C27.5393 193.419 26.7476 194.827 26.1802 196.292C25.8181 197.227 25.875 198.554 25.5115 199.371C25.0552 200.398 24.4997 200.262 23.9309 201.117C23.3227 202.031 23.1265 203.258 22.486 204.239C19.715 208.478 18.649 213.855 17.2252 218.691C15.3155 225.179 15.6164 232.636 15.7205 239.325C15.8309 246.391 16.2169 253.457 17.2793 260.448C18.2419 266.78 20.2993 272.853 23.5203 278.404C26.3271 283.242 30.1972 286.06 35.1549 288.538C37.4316 289.676 39.5445 289.325 41.9337 289.506C44.5514 289.705 46.3367 290.416 49.1063 289.791C50.4345 289.49 51.0638 288.523 52.1192 288.201C52.7724 288.002 53.1247 288.327 53.7518 288.251C54.649 288.142 56.5151 287.702 57.4882 287.808C60.5166 288.139 60.0082 292.717 60.3064 295.053C60.7648 298.654 61.1002 302.293 61.7189 305.871C63.019 313.395 65.8266 320.425 67.4853 327.82C59.7959 328.758 53.1999 330.193 45.9929 333.103C38.7626 336.022 31.4522 337.013 23.843 338.464C16.7246 339.822 9.87754 342.359 4.17942 346.955C1.50895 349.108 -1.26558 351.628 0.695431 355.175C1.94981 357.442 4.21035 358.019 6.16153 359.337C6.55598 358.838 5.41551 357.781 5.20668 357.488C6.84707 357.825 6.79715 358.591 7.99528 359.257C9.04223 359.839 9.89934 359.819 11.0454 360.23C13.8439 361.236 15.2192 363.744 17.9853 364.448C18.8557 364.67 19.9941 365.2 20.8836 365.35C21.953 365.53 22.7532 365.063 23.8367 365.261C24.421 365.646 25.0538 365.921 25.733 366.087C26.1788 365.88 26.6189 365.661 27.0528 365.431C28.6095 365.593 29.5707 366.572 30.8356 367.376C30.92 366.363 30.7983 365.31 31.7574 364.649C32.1321 365.634 31.5268 366.258 32.5491 366.937C33.8443 367.797 35.5451 366.723 36.7046 366.179C37.0329 369.455 44.6175 369.263 47.0215 369.215C50.3508 369.151 53.6766 367.83 57.0354 368.567C58.7489 368.943 60.5778 369.336 62.2836 369.824C64.3374 370.41 66.8201 370.935 68.8416 371.675C69.646 371.97 70.6303 372.913 71.4861 372.849C72.1674 372.798 72.3502 371.794 73.1433 371.822C74.0405 371.855 74.3422 372.855 75.1184 373.156C76.2814 373.605 77.3501 372.75 78.4547 373.182C78.852 373.336 79.3899 374.002 79.8983 374.22C80.6696 374.548 82.1968 374.553 83.0553 374.711C84.2724 374.937 85.3622 374.785 86.405 374.859C87.2459 374.92 87.2276 375.486 87.6298 375.522C88.0917 375.564 88.8954 373.977 89.5156 373.744C90.4184 373.405 92.0574 374.213 92.9785 374.355C86.3065 383.398 78.2621 391.391 69.5419 398.39C60.1362 405.94 50.5041 413.481 40.4178 420.103C31.2596 426.116 22.3946 431.316 15.2944 439.804C9.30731 446.961 -0.222847 454.619 1.24598 464.992C2.71411 475.358 13.969 479.576 22.9873 481.554C34.3301 484.043 46.0062 483.042 57.3793 484.441C62.2294 485.038 67.6182 484.719 72.5007 484.211C78.267 483.61 83.2093 479.847 88.167 477.126C97.084 472.231 104.707 465.681 113.491 460.634C124.488 454.313 135.37 447.617 147.426 443.384C153.035 441.414 158.809 439.167 163.334 435.116C164.007 434.514 164.509 433.604 165.27 433.107C166.563 432.263 166.909 433.119 167.66 432.863C168.237 432.667 168.797 432.042 169.296 431.855C170.561 431.382 171.126 431.577 172.543 431.577C171.327 430.876 170.214 429.069 171.476 427.597C173.636 425.074 174.009 429.105 174.82 430.039C175.508 429.155 175.245 428.368 175.069 427.363C175.65 427.747 176.232 428.13 176.813 428.515C176.413 426.57 176.794 424.779 177.824 423.085C178.774 421.523 179.009 421.743 179.27 419.579C182.221 422.273 182.798 415.735 183.064 413.351C183.32 411.04 183.066 409.381 184.587 407.359C186.218 405.189 188.7 403.818 190.771 402.132C194.044 399.468 197.644 396.104 202.17 398.658C205.741 400.676 207.686 405.62 211.037 408.161C213.07 409.703 215.216 409.858 216.512 412.249C217.56 414.18 217.9 416.494 218.889 418.477C221.285 423.286 224.735 428.788 228.67 432.477C232.334 435.911 237.036 435.893 241.323 438.023C245.566 440.131 249.976 442.416 254.468 443.944C259.374 445.612 264.664 446.322 269.44 448.344C271.897 449.384 274.094 450.95 276.573 451.946C279.246 453.019 282.062 453.776 284.771 454.76C295.503 458.658 306.006 463.438 317.28 465.599C322.281 466.557 326.91 469.16 331.947 469.709C334.108 469.944 335.87 470.241 337.985 470.782C341.302 471.63 340.599 472.081 341.821 474.846C343.832 479.399 348.741 476.703 352.525 476.817C358.583 477 364.548 476.02 370.595 475.974C381.172 475.892 391.355 474.7 401.586 471.228C411.858 467.742 423.552 459.341 415.015 447.734Z" fill="black"/>
<path fill-rule="evenodd" clip-rule="evenodd" d="M292.76 91.9978C292.905 92.1426 293.245 92.2305 292.76 91.9978V91.9978Z" fill="black"/>
<path fill-rule="evenodd" clip-rule="evenodd" d="M106.462 285.918C108.759 283.59 118.532 284.061 119.271 288.225C120.095 292.873 111.362 299.894 108.165 301.862C104.053 304.395 99.0325 304.87 99.7616 298.51C100.313 293.706 103.191 289.233 106.462 285.918ZM114.533 281.126C114.831 282.414 112.634 281.976 112.03 281.67C111.744 281.085 114.235 279.833 114.533 281.126ZM97.6789 289.65C99.628 289.825 101.862 286.697 103.333 285.632C103.982 286.637 99.6962 292.16 99.2244 293.42C98.0467 296.569 97.3914 300.547 98.9973 303.688C103.69 312.866 115.699 299.759 118.703 295.181C120.805 291.98 122.259 288.009 119.291 284.872C118.234 283.754 116.488 283.444 115.507 282.382C114.214 280.985 115.231 279.182 112.633 279.486C110.84 279.697 108.688 281.314 106.945 281.9C104.844 282.604 102.955 283.336 101.121 284.642C100.708 284.937 95.2707 289.433 97.6789 289.65Z" fill="black"/>
<path fill-rule="evenodd" clip-rule="evenodd" d="M235.455 292.73C234.229 299.036 227.981 305.505 221.407 305.756C214.859 306.005 212.739 299.146 213.895 293.678C214.881 289.015 218.911 280.913 224.661 281.806C229.182 282.507 236.505 287.325 235.455 292.73ZM231.285 282.191C227.134 278.979 221.399 277.493 216.587 280.042C215.009 280.877 208.712 284.563 210.628 287.058C213.212 285.056 215.443 282.277 218.8 281.611C218.235 284.214 215.011 286.555 213.875 289.09C212.546 292.051 211.82 295.44 212.037 298.694C212.425 304.485 216.304 308.985 222.309 308.189C227.808 307.46 232.614 303.246 235.237 298.508C238.739 292.182 236.766 286.432 231.285 282.191Z" fill="black"/>
<path fill-rule="evenodd" clip-rule="evenodd" d="M192.734 307.064C189.779 311.44 185.271 315.557 180.061 316.909C173.314 318.659 175.21 313.084 177.226 309.083C179.008 305.545 182.066 299.461 186.723 299.494C188.303 299.503 191.247 300.268 192.632 301.113C195.362 302.779 194.29 304.761 192.734 307.064ZM186.438 297.445C187.499 296.264 192.196 291.199 192.825 295.147C194.174 293.583 193.11 292.286 191.383 292.121C189.3 291.922 187.023 294.241 185.52 295.394C182.426 297.765 180.044 300.193 177.994 303.517C175.734 307.182 169.97 315.464 175.014 319.1C180.466 323.031 188.402 315.772 191.816 312.028C193.999 309.633 196.891 306.117 196.061 302.606C195.041 298.293 190.025 297.84 186.438 297.445Z" fill="black"/>
<path fill-rule="evenodd" clip-rule="evenodd" d="M163.174 226.914C160.123 230.395 153.926 235.467 148.819 234.869C144.162 234.324 145.98 229.097 147.628 226.567C150.105 222.764 153.422 219.194 158.215 218.986C160.284 218.897 162.966 218.939 164.569 220.506C166.757 222.646 164.787 225.075 163.174 226.914ZM162.85 217.243C159.276 216.008 157.872 215.538 154.399 217.501C151.609 219.077 149.136 221.305 147.222 223.835C144.357 227.622 141.468 236.141 148.824 237.206C156.892 238.375 176.084 221.819 162.85 217.243Z" fill="black"/>
<path fill-rule="evenodd" clip-rule="evenodd" d="M173.847 238.976C171.526 241.347 168.628 243.282 165.321 243.942C166.72 240.821 169.844 234 173.548 233.05C175.255 232.611 177.2 233.185 177.06 235.13C176.958 236.535 174.763 238.041 173.847 238.976ZM176.835 230.725C174.913 229.761 175.519 229.103 173.283 229.859C171.521 230.454 169.299 231.487 167.831 232.676C167.031 233.326 164.538 235.628 164.844 236.8C165.396 238.929 167.255 235.666 167.744 235.039C168.581 235.722 164.299 241.849 164.044 242.858C163.094 246.614 166.042 247.011 168.932 245.782C172.828 244.126 184.365 234.497 176.835 230.725Z" fill="black"/>
<path fill-rule="evenodd" clip-rule="evenodd" d="M233.959 331.784C234.247 329.295 234.655 326.662 236.941 325.264C238.999 324.004 241.132 324.187 241.436 326.771C241.72 329.172 239.369 333.435 237.466 334.744C234.817 336.568 234.307 334.295 233.959 331.784ZM237.363 337.45C242.801 334.268 246.229 319.673 236.204 323.763C230.507 326.088 232.602 340.235 237.363 337.45Z" fill="black"/>
<path fill-rule="evenodd" clip-rule="evenodd" d="M190.914 276.929C191.772 275.171 192.753 274.588 194.492 273.818C193.333 274.913 192.148 275.925 190.914 276.929ZM192.169 272.597C190.937 273.833 188.114 275.717 188.51 277.84C188.871 279.778 190.351 279.667 191.693 279.063C194.508 277.797 196.074 272.257 199.019 271.738C195.753 269.668 194.991 269.765 192.169 272.597Z" fill="black"/>
<path fill-rule="evenodd" clip-rule="evenodd" d="M192.602 162.571C192.758 168.471 192.896 174.37 193.026 180.27C193.072 182.344 192.577 185.3 193.199 187.286C193.474 188.161 195.959 191.953 196.841 192.199C199.925 193.057 198.823 185.324 198.845 183.42C198.92 176.995 198.826 170.564 198.8 164.139C198.785 160.828 199.72 133.067 195.424 133.203C194.684 133.226 192.861 136.4 192.587 137.037C191.723 139.035 192.041 141.997 192.061 144.128C192.119 150.273 192.438 156.427 192.602 162.571Z" fill="black"/>
<path fill-rule="evenodd" clip-rule="evenodd" d="M218.612 179.77C218.854 181.401 218.727 184.121 220.563 184.966C222.161 185.702 222.773 184.827 223.371 183.46C224.745 180.316 224.249 175.509 224.224 172.258C224.173 165.814 223.448 159.398 222.946 152.979C222.726 150.163 223.183 147.334 222.832 144.386C222.677 143.093 222.523 137.89 220.125 138.133C217.958 138.351 218.153 143.804 218.035 145.209C217.052 156.905 216.881 168.095 218.612 179.77Z" fill="black"/>
<path fill-rule="evenodd" clip-rule="evenodd" d="M320.931 314.074C320.012 318.77 305.022 335.127 301.248 325.98C299.008 320.551 303.863 314.643 307.648 311.501C309.99 309.557 312.917 307.648 316.11 308.238C318.82 308.738 321.514 311.09 320.931 314.074ZM313.19 305.648C312.131 305.898 303.282 312.113 303.201 312.031C302.432 311.26 308.014 302.94 308.588 302.212C313.32 296.216 316.461 300.756 319.421 305.469C318.791 302.654 317.057 298.568 314.159 297.377C310.501 295.875 307.648 299.584 305.888 302.25C303.4 306.02 302.029 310.113 300.646 314.367C299.987 316.395 299.236 318.235 298.12 320.063C297.018 321.868 295.09 323.858 295.375 326.141C296.942 325.271 297.774 323.566 298.76 322.162C299.861 322.608 299.483 326.118 299.706 327.012C300.268 329.257 301.802 331.014 304.175 331.4C308.597 332.119 313.37 328.028 316.327 325.25C319.442 322.322 322.796 318.308 322.769 313.802C322.74 309.094 318.11 304.484 313.19 305.648Z" fill="black"/>
<path fill-rule="evenodd" clip-rule="evenodd" d="M325.179 230.173C322.67 234.012 318.268 238.615 313.609 239.507C310.19 240.162 307.934 237.628 309.308 234.207C310.469 231.316 314.422 229.49 317.013 228.218C319.068 227.209 328.651 224.859 325.179 230.173ZM323.333 223.892C318.194 223.698 314.048 227.413 310.216 230.379C311.082 226.973 313.039 223.266 315.796 221.049C319.547 218.032 323.104 219.905 327.053 221.414C326.079 218.34 321.705 217.234 318.919 217.668C315.396 218.218 312.863 221.225 311.082 224.135C308.957 227.605 308.23 231.696 305.729 234.951C304.583 236.441 297.492 242.017 299.098 244.296C301.746 241.484 304.396 238.673 307.044 235.862C307.731 239.184 308.488 242.969 312.731 242.645C316.119 242.387 319.983 239.507 322.461 237.305C325.66 234.462 331.957 224.218 323.333 223.892Z" fill="black"/>
<path fill-rule="evenodd" clip-rule="evenodd" d="M251.341 256.679C249.164 257.679 244.372 259.04 243.155 256.033C241.464 251.855 246.905 244.529 249.494 241.745C251.088 240.033 252.168 239.147 254.389 240.255C256.163 241.141 258.768 243.655 259.448 245.589C260.909 249.739 254.747 255.112 251.341 256.679ZM256.336 236.617C258.109 237.017 258.326 239.268 256.109 238.403C254.448 237.756 254.062 236.104 256.336 236.617ZM258.562 239.788C257.9 237.768 259.247 234.601 255.986 234.455C254.139 234.373 250.755 236.251 249.142 237.015C246.906 238.072 244.802 239.687 243.635 241.962C242.554 244.069 243.326 244.625 244.974 242.876C245.176 243.013 241.246 253.148 241.211 254.163C241.058 258.804 244.343 261.86 248.957 261.038C253.198 260.281 257.019 256.813 259.353 253.314C260.533 251.542 261.503 249.514 261.591 247.344C261.727 244.016 259.508 242.678 258.562 239.788Z" fill="black"/>
<path fill-rule="evenodd" clip-rule="evenodd" d="M284.97 230.537C281.258 228.841 277.112 234.64 278.902 238.085C281.249 242.603 292.698 234.069 284.97 230.537ZM280.543 237.019C279.771 235.646 285.015 233.621 285.844 233.588C285.429 234.345 281.602 238.903 280.543 237.019Z" fill="black"/>
<path fill-rule="evenodd" clip-rule="evenodd" d="M32.3404 227.219C32.133 225.751 28.8438 227.882 28.8628 228.827C29.407 227.739 32.7721 230.277 32.3404 227.219Z" fill="black"/>
<path fill-rule="evenodd" clip-rule="evenodd" d="M212.242 116.324C216.43 116.016 211.094 94.8884 208.042 96.7566C204.733 98.7816 208.399 116.606 212.242 116.324Z" fill="black"/>
<path fill-rule="evenodd" clip-rule="evenodd" d="M220.063 106.458C223.986 107.02 223.363 98.011 221.253 96.3987C217.357 93.4224 215.299 105.776 220.063 106.458Z" fill="black"/>
</svg>
