<svg width="36" height="36" viewBox="0 0 36 36" fill="none" xmlns="http://www.w3.org/2000/svg">
<path d="M23.9075 25.4986L20.9531 22.544L22.544 20.9531L25.4986 23.9075L26.2031 23.2031C26.6423 22.7638 27.3547 22.7638 27.794 23.2031L33.044 28.4531C33.4834 28.8923 33.4834 29.6047 33.044 30.044L30.044 33.044C29.6047 33.4834 28.8923 33.4834 28.4531 33.044L23.2031 27.794C22.7638 27.3547 22.7638 26.6423 23.2031 26.2031L23.9075 25.4986Z" fill="#0FE000"/>
<path d="M19.8935 2.70072C20.3088 2.8613 20.5904 3.25173 20.6115 3.69653L20.9736 11.3007L28.2531 14.9405C28.665 15.1464 28.9098 15.5825 28.8711 16.0413C28.8324 16.5 28.518 16.889 28.0776 17.0231L19.6025 19.6025L17.0231 28.0776C16.889 28.518 16.5 28.8324 16.0413 28.8711C15.5825 28.9098 15.1464 28.665 14.9405 28.2531L11.3007 20.9736L3.69653 20.6115C3.25173 20.5904 2.8613 20.3088 2.70072 19.8935C2.54015 19.4781 2.63967 19.0071 2.95454 18.6923L7.93818 13.7086L5.06615 6.52851C4.89902 6.11066 4.99698 5.63342 5.31519 5.31519C5.63342 4.99698 6.11066 4.89902 6.52851 5.06615L13.7086 7.93818L18.6923 2.95454C19.0071 2.63967 19.4781 2.54015 19.8935 2.70072Z" fill="#0FE000"/>
</svg>
