<svg width="36" height="36" viewBox="0 0 36 36" fill="none" xmlns="http://www.w3.org/2000/svg">
<path fill-rule="evenodd" clip-rule="evenodd" d="M17.625 3C18.2463 3 18.75 3.50368 18.75 4.125C18.75 7.13412 20.2659 10.2374 22.6392 12.6108C25.0126 14.9841 28.1159 16.5 31.125 16.5C31.7463 16.5 32.25 17.0037 32.25 17.625C32.25 18.2463 31.7463 18.75 31.125 18.75C28.1159 18.75 25.0126 20.2659 22.6392 22.6392C20.2659 25.0126 18.75 28.1159 18.75 31.125C18.75 31.7463 18.2463 32.25 17.625 32.25C17.0037 32.25 16.5 31.7463 16.5 31.125C16.5 28.1159 14.9841 25.0126 12.6108 22.6392C10.2374 20.2659 7.13412 18.75 4.125 18.75C3.50368 18.75 3 18.2463 3 17.625C3 17.0037 3.50368 16.5 4.125 16.5C7.13412 16.5 10.2374 14.9841 12.6108 12.6108C14.9841 10.2374 16.5 7.13412 16.5 4.125C16.5 3.50368 17.0037 3 17.625 3Z" fill="#4741A6"/>
<path fill-rule="evenodd" clip-rule="evenodd" d="M28.5 1.875C29.1213 1.875 29.625 2.37868 29.625 3C29.625 4.86396 31.1361 6.375 33 6.375C33.6213 6.375 34.125 6.87868 34.125 7.5C34.125 8.12132 33.6213 8.625 33 8.625C31.1361 8.625 29.625 10.136 29.625 12C29.625 12.6213 29.1213 13.125 28.5 13.125C27.8787 13.125 27.375 12.6213 27.375 12C27.375 10.136 25.8639 8.625 24 8.625C23.3787 8.625 22.875 8.12132 22.875 7.5C22.875 6.87868 23.3787 6.375 24 6.375C25.8639 6.375 27.375 4.86396 27.375 3C27.375 2.37868 27.8787 1.875 28.5 1.875Z" fill="#4741A6"/>
<path fill-rule="evenodd" clip-rule="evenodd" d="M6.75 24.375C7.37132 24.375 7.875 24.8787 7.875 25.5C7.875 26.9497 9.05025 28.125 10.5 28.125C11.1213 28.125 11.625 28.6287 11.625 29.25C11.625 29.8713 11.1213 30.375 10.5 30.375C9.05025 30.375 7.875 31.5503 7.875 33C7.875 33.6213 7.37132 34.125 6.75 34.125C6.12868 34.125 5.625 33.6213 5.625 33C5.625 31.5503 4.44975 30.375 3 30.375C2.37868 30.375 1.875 29.8713 1.875 29.25C1.875 28.6287 2.37868 28.125 3 28.125C4.44975 28.125 5.625 26.9497 5.625 25.5C5.625 24.8787 6.12868 24.375 6.75 24.375Z" fill="#4741A6"/>
</svg>
