<svg width="45" height="45" viewBox="0 0 45 45" fill="none" xmlns="http://www.w3.org/2000/svg">
<rect width="45" height="45" rx="22.5" fill="#22B545"/>
<path d="M16.567 30.618L17.4729 31.1462C18.9864 32.0287 20.7064 32.5 22.5012 32.5C28.0241 32.5 32.5012 28.0229 32.5012 22.5C32.5012 16.9771 28.0241 12.5 22.5012 12.5C16.9784 12.5 12.5012 16.9771 12.5012 22.5C12.5012 24.2954 12.9728 26.016 13.8558 27.5298L14.3838 28.4348L13.5669 31.4368L16.567 30.618ZM10.0064 35L11.6964 28.7894C10.6187 26.942 10.0012 24.7931 10.0012 22.5C10.0012 15.5964 15.5977 10 22.5012 10C29.4047 10 35.0012 15.5964 35.0012 22.5C35.0012 29.4035 29.4047 35 22.5012 35C20.2089 35 18.0606 34.383 16.2136 33.3059L10.0064 35ZM17.9904 16.6354C18.1577 16.6237 18.3257 16.6219 18.4932 16.63C18.5609 16.6345 18.6283 16.6423 18.6957 16.6501C18.8948 16.6731 19.1137 16.7943 19.1873 16.9612C19.5602 17.8067 19.922 18.6571 20.2727 19.512C20.3501 19.7008 20.3035 19.9454 20.1562 20.1821C20.0815 20.3035 19.9641 20.4738 19.8281 20.6479C19.6867 20.8287 19.3825 21.1614 19.3825 21.1614C19.3825 21.1614 19.2592 21.3091 19.3057 21.493C19.3238 21.5625 19.3815 21.6638 19.4338 21.7489C19.4628 21.796 19.4897 21.8381 19.5072 21.8673C19.8271 22.4014 20.2571 22.9429 20.7824 23.452C20.9329 23.5979 21.0789 23.7467 21.2359 23.885C21.8212 24.4011 22.4835 24.8229 23.1987 25.1353L23.2051 25.1381C23.3107 25.1836 23.365 25.2085 23.5196 25.2741C23.5976 25.3071 23.6774 25.3356 23.7592 25.3573C23.7889 25.365 23.8192 25.3694 23.8497 25.3715C24.0519 25.3836 24.1687 25.254 24.2186 25.1944C25.123 24.0988 25.2057 24.0273 25.212 24.0278V24.0297C25.3309 23.9045 25.5177 23.861 25.6845 23.8713C25.7606 23.8759 25.8364 23.8905 25.9056 23.9221C26.5704 24.2254 27.6572 24.6984 27.6572 24.6984L28.3841 25.0251C28.5059 25.0839 28.617 25.2223 28.6224 25.3568C28.6256 25.4404 28.6346 25.5754 28.6047 25.8224C28.5656 26.1458 28.4672 26.5351 28.3695 26.7391C28.3007 26.8822 28.2117 27.0093 28.1082 27.1168C27.9679 27.2625 27.8636 27.351 27.6949 27.4767C27.5921 27.5532 27.5389 27.5892 27.5389 27.5892C27.3652 27.6987 27.2674 27.7535 27.0605 27.8636C26.7387 28.035 26.3832 28.1335 26.0191 28.1522C25.787 28.1641 25.5555 28.1809 25.3236 28.1684C25.3134 28.1678 24.6134 28.0602 24.6134 28.0602C22.836 27.5928 21.1922 26.717 19.8129 25.5025C19.5309 25.2543 19.2694 24.9856 19.0024 24.7199C17.8911 23.6135 17.0498 22.4205 16.5396 21.292C16.288 20.7355 16.1287 20.1395 16.1262 19.5262C16.1216 18.7676 16.37 18.029 16.8321 17.4273C16.9232 17.3087 17.0097 17.1857 17.1589 17.0448C17.3168 16.8956 17.4174 16.8156 17.5257 16.7601C17.6701 16.6863 17.8287 16.6468 17.9904 16.6354Z" fill="white"/>
</svg>
